%TF.GenerationSoftware,KiCad,Pcbnew,9.0.1*%
%TF.CreationDate,2025-04-19T10:59:12+01:00*%
%TF.ProjectId,firstkicadproject,66697273-746b-4696-9361-6470726f6a65,rev?*%
%TF.SameCoordinates,Original*%
%TF.FileFunction,Copper,L1,Top*%
%TF.FilePolarity,Positive*%
%FSLAX46Y46*%
G04 Gerber Fmt 4.6, Leading zero omitted, Abs format (unit mm)*
G04 Created by KiCad (PCBNEW 9.0.1) date 2025-04-19 10:59:12*
%MOMM*%
%LPD*%
G01*
G04 APERTURE LIST*
G04 Aperture macros list*
%AMRoundRect*
0 Rectangle with rounded corners*
0 $1 Rounding radius*
0 $2 $3 $4 $5 $6 $7 $8 $9 X,Y pos of 4 corners*
0 Add a 4 corners polygon primitive as box body*
4,1,4,$2,$3,$4,$5,$6,$7,$8,$9,$2,$3,0*
0 Add four circle primitives for the rounded corners*
1,1,$1+$1,$2,$3*
1,1,$1+$1,$4,$5*
1,1,$1+$1,$6,$7*
1,1,$1+$1,$8,$9*
0 Add four rect primitives between the rounded corners*
20,1,$1+$1,$2,$3,$4,$5,0*
20,1,$1+$1,$4,$5,$6,$7,0*
20,1,$1+$1,$6,$7,$8,$9,0*
20,1,$1+$1,$8,$9,$2,$3,0*%
G04 Aperture macros list end*
%TA.AperFunction,SMDPad,CuDef*%
%ADD10RoundRect,0.218750X-0.256250X0.218750X-0.256250X-0.218750X0.256250X-0.218750X0.256250X0.218750X0*%
%TD*%
%TA.AperFunction,SMDPad,CuDef*%
%ADD11RoundRect,0.140000X-0.140000X-0.170000X0.140000X-0.170000X0.140000X0.170000X-0.140000X0.170000X0*%
%TD*%
%TA.AperFunction,ComponentPad*%
%ADD12R,1.700000X1.700000*%
%TD*%
%TA.AperFunction,ComponentPad*%
%ADD13C,1.700000*%
%TD*%
%TA.AperFunction,SMDPad,CuDef*%
%ADD14RoundRect,0.135000X0.185000X-0.135000X0.185000X0.135000X-0.185000X0.135000X-0.185000X-0.135000X0*%
%TD*%
%TA.AperFunction,SMDPad,CuDef*%
%ADD15RoundRect,0.140000X0.170000X-0.140000X0.170000X0.140000X-0.170000X0.140000X-0.170000X-0.140000X0*%
%TD*%
%TA.AperFunction,SMDPad,CuDef*%
%ADD16RoundRect,0.218750X-0.218750X-0.256250X0.218750X-0.256250X0.218750X0.256250X-0.218750X0.256250X0*%
%TD*%
%TA.AperFunction,SMDPad,CuDef*%
%ADD17RoundRect,0.135000X0.135000X0.185000X-0.135000X0.185000X-0.135000X-0.185000X0.135000X-0.185000X0*%
%TD*%
%TA.AperFunction,SMDPad,CuDef*%
%ADD18RoundRect,0.140000X-0.170000X0.140000X-0.170000X-0.140000X0.170000X-0.140000X0.170000X0.140000X0*%
%TD*%
%TA.AperFunction,SMDPad,CuDef*%
%ADD19RoundRect,0.225000X0.250000X-0.225000X0.250000X0.225000X-0.250000X0.225000X-0.250000X-0.225000X0*%
%TD*%
%TA.AperFunction,SMDPad,CuDef*%
%ADD20RoundRect,0.250000X0.475000X-0.250000X0.475000X0.250000X-0.475000X0.250000X-0.475000X-0.250000X0*%
%TD*%
%TA.AperFunction,SMDPad,CuDef*%
%ADD21RoundRect,0.375000X-0.625000X-0.375000X0.625000X-0.375000X0.625000X0.375000X-0.625000X0.375000X0*%
%TD*%
%TA.AperFunction,SMDPad,CuDef*%
%ADD22RoundRect,0.500000X-0.500000X-1.400000X0.500000X-1.400000X0.500000X1.400000X-0.500000X1.400000X0*%
%TD*%
%TA.AperFunction,SMDPad,CuDef*%
%ADD23RoundRect,0.075000X0.075000X-0.662500X0.075000X0.662500X-0.075000X0.662500X-0.075000X-0.662500X0*%
%TD*%
%TA.AperFunction,SMDPad,CuDef*%
%ADD24RoundRect,0.075000X0.662500X-0.075000X0.662500X0.075000X-0.662500X0.075000X-0.662500X-0.075000X0*%
%TD*%
%TA.AperFunction,SMDPad,CuDef*%
%ADD25RoundRect,0.250000X-0.250000X-0.475000X0.250000X-0.475000X0.250000X0.475000X-0.250000X0.475000X0*%
%TD*%
%TA.AperFunction,SMDPad,CuDef*%
%ADD26R,1.400000X1.200000*%
%TD*%
%TA.AperFunction,SMDPad,CuDef*%
%ADD27R,0.450000X1.300000*%
%TD*%
%TA.AperFunction,HeatsinkPad*%
%ADD28O,1.150000X1.800000*%
%TD*%
%TA.AperFunction,HeatsinkPad*%
%ADD29O,1.450000X2.000000*%
%TD*%
%TA.AperFunction,SMDPad,CuDef*%
%ADD30R,1.000000X0.800000*%
%TD*%
%TA.AperFunction,SMDPad,CuDef*%
%ADD31R,0.700000X1.500000*%
%TD*%
%TA.AperFunction,SMDPad,CuDef*%
%ADD32RoundRect,0.135000X-0.185000X0.135000X-0.185000X-0.135000X0.185000X-0.135000X0.185000X0.135000X0*%
%TD*%
%TA.AperFunction,SMDPad,CuDef*%
%ADD33RoundRect,0.140000X0.140000X0.170000X-0.140000X0.170000X-0.140000X-0.170000X0.140000X-0.170000X0*%
%TD*%
%TA.AperFunction,ViaPad*%
%ADD34C,0.600000*%
%TD*%
%TA.AperFunction,ViaPad*%
%ADD35C,0.700000*%
%TD*%
%TA.AperFunction,Conductor*%
%ADD36C,0.500000*%
%TD*%
%TA.AperFunction,Conductor*%
%ADD37C,0.300000*%
%TD*%
G04 APERTURE END LIST*
D10*
%TO.P,D1,1,K*%
%TO.N,Net-(D1-K)*%
X84500000Y-43000000D03*
%TO.P,D1,2,A*%
%TO.N,+3.3V*%
X84500000Y-44575000D03*
%TD*%
D11*
%TO.P,C2,1*%
%TO.N,+3.3V*%
X75540000Y-56000000D03*
%TO.P,C2,2*%
%TO.N,GND*%
X76500000Y-56000000D03*
%TD*%
D12*
%TO.P,J3,1,Pin_1*%
%TO.N,+3.3V*%
X68500000Y-61500000D03*
D13*
%TO.P,J3,2,Pin_2*%
%TO.N,/USART1_TX*%
X68500000Y-64040000D03*
%TO.P,J3,3,Pin_3*%
%TO.N,/USART1_RX*%
X68500000Y-66580000D03*
%TO.P,J3,4,Pin_4*%
%TO.N,GND*%
X68500000Y-69120000D03*
%TD*%
D12*
%TO.P,J2,1,Pin_1*%
%TO.N,+3.3V*%
X69000000Y-47880000D03*
D13*
%TO.P,J2,2,Pin_2*%
%TO.N,/SWDIO*%
X69000000Y-50420000D03*
%TO.P,J2,3,Pin_3*%
%TO.N,/SWCLK*%
X69000000Y-52960000D03*
%TO.P,J2,4,Pin_4*%
%TO.N,GND*%
X69000000Y-55500000D03*
%TD*%
D14*
%TO.P,R3,1*%
%TO.N,Net-(D1-K)*%
X84500000Y-40500000D03*
%TO.P,R3,2*%
%TO.N,GND*%
X84500000Y-39480000D03*
%TD*%
D15*
%TO.P,C1,1*%
%TO.N,+3.3V*%
X72000000Y-65980000D03*
%TO.P,C1,2*%
%TO.N,GND*%
X72000000Y-65020000D03*
%TD*%
D16*
%TO.P,FB1,1*%
%TO.N,+3.3VA*%
X84425000Y-70000000D03*
%TO.P,FB1,2*%
%TO.N,+3.3V*%
X86000000Y-70000000D03*
%TD*%
D11*
%TO.P,C9,1*%
%TO.N,/NRST*%
X80020000Y-73000000D03*
%TO.P,C9,2*%
%TO.N,GND*%
X80980000Y-73000000D03*
%TD*%
%TO.P,C7,1*%
%TO.N,+3.3VA*%
X84425000Y-71500000D03*
%TO.P,C7,2*%
%TO.N,GND*%
X85385000Y-71500000D03*
%TD*%
D17*
%TO.P,R2,1*%
%TO.N,/USB_D+*%
X77000000Y-53000000D03*
%TO.P,R2,2*%
%TO.N,+3.3V*%
X75980000Y-53000000D03*
%TD*%
D14*
%TO.P,R4,1*%
%TO.N,/I2C2_SCL*%
X87000000Y-63510000D03*
%TO.P,R4,2*%
%TO.N,+3.3V*%
X87000000Y-62490000D03*
%TD*%
D18*
%TO.P,C10,1*%
%TO.N,/HSE_OUT*%
X78000000Y-69000000D03*
%TO.P,C10,2*%
%TO.N,GND*%
X78000000Y-69960000D03*
%TD*%
D17*
%TO.P,R1,1*%
%TO.N,Net-(SW1-B)*%
X74000000Y-76500000D03*
%TO.P,R1,2*%
%TO.N,Net-(U1-BOOT0)*%
X72980000Y-76500000D03*
%TD*%
D19*
%TO.P,C5,1*%
%TO.N,+3.3V*%
X73500000Y-66550000D03*
%TO.P,C5,2*%
%TO.N,GND*%
X73500000Y-65000000D03*
%TD*%
D20*
%TO.P,C12,1*%
%TO.N,VBUS*%
X79500000Y-51400000D03*
%TO.P,C12,2*%
%TO.N,GND*%
X79500000Y-49500000D03*
%TD*%
D21*
%TO.P,U2,1,GND*%
%TO.N,GND*%
X82200000Y-49700000D03*
%TO.P,U2,2,VO*%
%TO.N,+3.3V*%
X82200000Y-52000000D03*
D22*
X88500000Y-52000000D03*
D21*
%TO.P,U2,3,VI*%
%TO.N,VBUS*%
X82200000Y-54300000D03*
%TD*%
D18*
%TO.P,C8,1*%
%TO.N,+3.3V*%
X87925000Y-70520000D03*
%TO.P,C8,2*%
%TO.N,GND*%
X87925000Y-71480000D03*
%TD*%
D23*
%TO.P,U1,1,VBAT*%
%TO.N,+3.3V*%
X76912500Y-66662500D03*
%TO.P,U1,2,PC13*%
%TO.N,unconnected-(U1-PC13-Pad2)*%
X77412500Y-66662500D03*
%TO.P,U1,3,PC14*%
%TO.N,unconnected-(U1-PC14-Pad3)*%
X77912500Y-66662500D03*
%TO.P,U1,4,PC15*%
%TO.N,unconnected-(U1-PC15-Pad4)*%
X78412500Y-66662500D03*
%TO.P,U1,5,PD0*%
%TO.N,/HSE_IN*%
X78912500Y-66662500D03*
%TO.P,U1,6,PD1*%
%TO.N,/HSE_OUT*%
X79412500Y-66662500D03*
%TO.P,U1,7,NRST*%
%TO.N,/NRST*%
X79912500Y-66662500D03*
%TO.P,U1,8,VSSA*%
%TO.N,GND*%
X80412500Y-66662500D03*
%TO.P,U1,9,VDDA*%
%TO.N,+3.3VA*%
X80912500Y-66662500D03*
%TO.P,U1,10,PA0*%
%TO.N,unconnected-(U1-PA0-Pad10)*%
X81412500Y-66662500D03*
%TO.P,U1,11,PA1*%
%TO.N,unconnected-(U1-PA1-Pad11)*%
X81912500Y-66662500D03*
%TO.P,U1,12,PA2*%
%TO.N,unconnected-(U1-PA2-Pad12)*%
X82412500Y-66662500D03*
D24*
%TO.P,U1,13,PA3*%
%TO.N,unconnected-(U1-PA3-Pad13)*%
X83825000Y-65250000D03*
%TO.P,U1,14,PA4*%
%TO.N,unconnected-(U1-PA4-Pad14)*%
X83825000Y-64750000D03*
%TO.P,U1,15,PA5*%
%TO.N,unconnected-(U1-PA5-Pad15)*%
X83825000Y-64250000D03*
%TO.P,U1,16,PA6*%
%TO.N,unconnected-(U1-PA6-Pad16)*%
X83825000Y-63750000D03*
%TO.P,U1,17,PA7*%
%TO.N,unconnected-(U1-PA7-Pad17)*%
X83825000Y-63250000D03*
%TO.P,U1,18,PB0*%
%TO.N,unconnected-(U1-PB0-Pad18)*%
X83825000Y-62750000D03*
%TO.P,U1,19,PB1*%
%TO.N,unconnected-(U1-PB1-Pad19)*%
X83825000Y-62250000D03*
%TO.P,U1,20,PB2*%
%TO.N,unconnected-(U1-PB2-Pad20)*%
X83825000Y-61750000D03*
%TO.P,U1,21,PB10*%
%TO.N,/I2C2_SCL*%
X83825000Y-61250000D03*
%TO.P,U1,22,PB11*%
%TO.N,/I2C2_SDA*%
X83825000Y-60750000D03*
%TO.P,U1,23,VSS*%
%TO.N,GND*%
X83825000Y-60250000D03*
%TO.P,U1,24,VDD*%
%TO.N,+3.3V*%
X83825000Y-59750000D03*
D23*
%TO.P,U1,25,PB12*%
%TO.N,unconnected-(U1-PB12-Pad25)*%
X82412500Y-58337500D03*
%TO.P,U1,26,PB13*%
%TO.N,unconnected-(U1-PB13-Pad26)*%
X81912500Y-58337500D03*
%TO.P,U1,27,PB14*%
%TO.N,unconnected-(U1-PB14-Pad27)*%
X81412500Y-58337500D03*
%TO.P,U1,28,PB15*%
%TO.N,unconnected-(U1-PB15-Pad28)*%
X80912500Y-58337500D03*
%TO.P,U1,29,PA8*%
%TO.N,unconnected-(U1-PA8-Pad29)*%
X80412500Y-58337500D03*
%TO.P,U1,30,PA9*%
%TO.N,unconnected-(U1-PA9-Pad30)*%
X79912500Y-58337500D03*
%TO.P,U1,31,PA10*%
%TO.N,unconnected-(U1-PA10-Pad31)*%
X79412500Y-58337500D03*
%TO.P,U1,32,PA11*%
%TO.N,/USB_D-*%
X78912500Y-58337500D03*
%TO.P,U1,33,PA12*%
%TO.N,/USB_D+*%
X78412500Y-58337500D03*
%TO.P,U1,34,PA13*%
%TO.N,/SWDIO*%
X77912500Y-58337500D03*
%TO.P,U1,35,VSS*%
%TO.N,GND*%
X77412500Y-58337500D03*
%TO.P,U1,36,VDD*%
%TO.N,+3.3V*%
X76912500Y-58337500D03*
D24*
%TO.P,U1,37,PA14*%
%TO.N,/SWCLK*%
X75500000Y-59750000D03*
%TO.P,U1,38,PA15*%
%TO.N,unconnected-(U1-PA15-Pad38)*%
X75500000Y-60250000D03*
%TO.P,U1,39,PB3*%
%TO.N,unconnected-(U1-PB3-Pad39)*%
X75500000Y-60750000D03*
%TO.P,U1,40,PB4*%
%TO.N,unconnected-(U1-PB4-Pad40)*%
X75500000Y-61250000D03*
%TO.P,U1,41,PB5*%
%TO.N,unconnected-(U1-PB5-Pad41)*%
X75500000Y-61750000D03*
%TO.P,U1,42,PB6*%
%TO.N,/USART1_TX*%
X75500000Y-62250000D03*
%TO.P,U1,43,PB7*%
%TO.N,/USART1_RX*%
X75500000Y-62750000D03*
%TO.P,U1,44,BOOT0*%
%TO.N,Net-(U1-BOOT0)*%
X75500000Y-63250000D03*
%TO.P,U1,45,PB8*%
%TO.N,unconnected-(U1-PB8-Pad45)*%
X75500000Y-63750000D03*
%TO.P,U1,46,PB9*%
%TO.N,unconnected-(U1-PB9-Pad46)*%
X75500000Y-64250000D03*
%TO.P,U1,47,VSS*%
%TO.N,GND*%
X75500000Y-64750000D03*
%TO.P,U1,48,VDD*%
%TO.N,+3.3V*%
X75500000Y-65250000D03*
%TD*%
D18*
%TO.P,C6,1*%
%TO.N,+3.3VA*%
X82000000Y-71000000D03*
%TO.P,C6,2*%
%TO.N,GND*%
X82000000Y-71960000D03*
%TD*%
D25*
%TO.P,C13,1*%
%TO.N,+3.3V*%
X87100000Y-47000000D03*
%TO.P,C13,2*%
%TO.N,GND*%
X89000000Y-47000000D03*
%TD*%
D18*
%TO.P,C3,1*%
%TO.N,+3.3V*%
X86000000Y-58500000D03*
%TO.P,C3,2*%
%TO.N,GND*%
X86000000Y-59460000D03*
%TD*%
D26*
%TO.P,Y1,1,1*%
%TO.N,/HSE_IN*%
X74300000Y-73350000D03*
%TO.P,Y1,2,2*%
%TO.N,GND*%
X76500000Y-73350000D03*
%TO.P,Y1,3,3*%
%TO.N,/HSE_OUT*%
X76500000Y-71650000D03*
%TO.P,Y1,4,4*%
%TO.N,GND*%
X74300000Y-71650000D03*
%TD*%
D27*
%TO.P,J1,1,VBUS*%
%TO.N,VBUS*%
X79150000Y-45000000D03*
%TO.P,J1,2,D-*%
%TO.N,/USB_D-*%
X78500000Y-45000000D03*
%TO.P,J1,3,D+*%
%TO.N,/USB_D+*%
X77850000Y-45000000D03*
%TO.P,J1,4,ID*%
%TO.N,unconnected-(J1-ID-Pad4)*%
X77200000Y-45000000D03*
%TO.P,J1,5,GND*%
%TO.N,GND*%
X76550000Y-45000000D03*
D28*
%TO.P,J1,6,Shield*%
%TO.N,unconnected-(J1-Shield-Pad6)_1*%
X81725000Y-41150000D03*
D29*
%TO.N,unconnected-(J1-Shield-Pad6)_2*%
X81575000Y-44950000D03*
%TO.N,unconnected-(J1-Shield-Pad6)*%
X74125000Y-44950000D03*
D28*
%TO.N,unconnected-(J1-Shield-Pad6)_3*%
X73975000Y-41150000D03*
%TD*%
D30*
%TO.P,SW1,*%
%TO.N,*%
X77200000Y-76790000D03*
X77200000Y-79000000D03*
X84500000Y-76790000D03*
X84500000Y-79000000D03*
D31*
%TO.P,SW1,1,A*%
%TO.N,GND*%
X78600000Y-76140000D03*
%TO.P,SW1,2,B*%
%TO.N,Net-(SW1-B)*%
X81600000Y-76140000D03*
%TO.P,SW1,3,C*%
%TO.N,+3.3V*%
X83100000Y-76140000D03*
%TD*%
D12*
%TO.P,J4,1,Pin_1*%
%TO.N,+3.3V*%
X90000000Y-66500000D03*
D13*
%TO.P,J4,2,Pin_2*%
%TO.N,/I2C2_SCL*%
X90000000Y-63960000D03*
%TO.P,J4,3,Pin_3*%
%TO.N,/I2C2_SDA*%
X90000000Y-61420000D03*
%TO.P,J4,4,Pin_4*%
%TO.N,GND*%
X90000000Y-58880000D03*
%TD*%
D18*
%TO.P,C4,1*%
%TO.N,+3.3V*%
X74000000Y-68020000D03*
%TO.P,C4,2*%
%TO.N,GND*%
X74000000Y-68980000D03*
%TD*%
D32*
%TO.P,R5,1*%
%TO.N,/I2C2_SDA*%
X87000000Y-60490000D03*
%TO.P,R5,2*%
%TO.N,+3.3V*%
X87000000Y-61510000D03*
%TD*%
D33*
%TO.P,C11,1*%
%TO.N,/HSE_IN*%
X75500000Y-70000000D03*
%TO.P,C11,2*%
%TO.N,GND*%
X74540000Y-70000000D03*
%TD*%
D34*
%TO.N,GND*%
X77500000Y-65000000D03*
D35*
X73000000Y-70000000D03*
D34*
X78000000Y-71000000D03*
X86500000Y-72000000D03*
X89500000Y-48500000D03*
X80000000Y-48000000D03*
X76000000Y-76000000D03*
X76500000Y-55000000D03*
X74850000Y-69000000D03*
X76000000Y-47500000D03*
X80500000Y-65000000D03*
X78000000Y-74000000D03*
X83000000Y-72500000D03*
X82000000Y-60500000D03*
X82000000Y-73000000D03*
X89500000Y-72000000D03*
X85000000Y-39500000D03*
X72500000Y-71000000D03*
X81000000Y-48000000D03*
%TO.N,+3.3V*%
X88000000Y-59840000D03*
X88000000Y-64160000D03*
X88000000Y-62860000D03*
X88000000Y-61140000D03*
X85250000Y-41500000D03*
X83500000Y-41500000D03*
%TD*%
D36*
%TO.N,GND*%
X76500000Y-75500000D02*
X77960000Y-75500000D01*
X84500000Y-39480000D02*
X84980000Y-39480000D01*
D37*
X75500000Y-64750000D02*
X77250000Y-64750000D01*
D36*
X78000000Y-69960000D02*
X78000000Y-71000000D01*
X77500000Y-73000000D02*
X76500000Y-73000000D01*
X74540000Y-70000000D02*
X73000000Y-70000000D01*
X88980000Y-71480000D02*
X89500000Y-72000000D01*
X76000000Y-76000000D02*
X76500000Y-75500000D01*
X82000000Y-73000000D02*
X80980000Y-73000000D01*
X73480000Y-65020000D02*
X73500000Y-65000000D01*
D37*
X80412500Y-66662500D02*
X80412500Y-71412500D01*
X82250000Y-60250000D02*
X82000000Y-60500000D01*
D36*
X76500000Y-56000000D02*
X76500000Y-55000000D01*
D37*
X76550000Y-46950000D02*
X76000000Y-47500000D01*
D36*
X76000000Y-76000000D02*
X75979484Y-76020516D01*
X78000000Y-74000000D02*
X78000000Y-73500000D01*
X72800000Y-71300000D02*
X72500000Y-71000000D01*
X82000000Y-71960000D02*
X82460000Y-71960000D01*
D37*
X83825000Y-60250000D02*
X84750000Y-60250000D01*
D36*
X74300000Y-71300000D02*
X72800000Y-71300000D01*
X87925000Y-71480000D02*
X88980000Y-71480000D01*
D37*
X77250000Y-64750000D02*
X77500000Y-65000000D01*
D36*
X79500000Y-48500000D02*
X80000000Y-48000000D01*
D37*
X87905000Y-71500000D02*
X87925000Y-71480000D01*
D36*
X84980000Y-39480000D02*
X85000000Y-39500000D01*
X89000000Y-48000000D02*
X89500000Y-48500000D01*
X72000000Y-65020000D02*
X73480000Y-65020000D01*
X82200000Y-49700000D02*
X82200000Y-49200000D01*
D37*
X85540000Y-59460000D02*
X86000000Y-59460000D01*
X80412500Y-65087500D02*
X80500000Y-65000000D01*
D36*
X89000000Y-47000000D02*
X89000000Y-48000000D01*
D37*
X76550000Y-45000000D02*
X76550000Y-46950000D01*
X74830000Y-68980000D02*
X74850000Y-69000000D01*
X77412500Y-58337500D02*
X77412500Y-56308243D01*
X77412500Y-56308243D02*
X77104257Y-56000000D01*
D36*
X77960000Y-75500000D02*
X78600000Y-76140000D01*
D37*
X84750000Y-60250000D02*
X85540000Y-59460000D01*
X77104257Y-56000000D02*
X76500000Y-56000000D01*
X83825000Y-60250000D02*
X82250000Y-60250000D01*
D36*
X82460000Y-71960000D02*
X83000000Y-72500000D01*
X86000000Y-71500000D02*
X86500000Y-72000000D01*
X85385000Y-71500000D02*
X86000000Y-71500000D01*
D37*
X74000000Y-68980000D02*
X74830000Y-68980000D01*
D36*
X84500000Y-39480000D02*
X84500000Y-39500000D01*
D37*
X80412500Y-71412500D02*
X80960000Y-71960000D01*
X80960000Y-71960000D02*
X82000000Y-71960000D01*
X80412500Y-66662500D02*
X80412500Y-65087500D01*
D36*
X79500000Y-49500000D02*
X79500000Y-48500000D01*
X78000000Y-73500000D02*
X77500000Y-73000000D01*
D37*
X75500000Y-64750000D02*
X73250000Y-64750000D01*
D36*
X82200000Y-49200000D02*
X81000000Y-48000000D01*
D37*
%TO.N,+3.3V*%
X76911500Y-57000000D02*
X76912500Y-57001000D01*
D36*
X87990000Y-62490000D02*
X87000000Y-62490000D01*
D37*
X75540000Y-56540000D02*
X75540000Y-56000000D01*
D36*
X86701000Y-74799000D02*
X83000000Y-74799000D01*
X67120000Y-47880000D02*
X67000000Y-48000000D01*
X86000000Y-70000000D02*
X86000000Y-67500000D01*
D37*
X75540000Y-56540000D02*
X76000000Y-57000000D01*
X86000000Y-58500000D02*
X85500000Y-58500000D01*
D36*
X88000000Y-73500000D02*
X86701000Y-74799000D01*
X74000000Y-54500000D02*
X75500000Y-56000000D01*
X82178150Y-42569000D02*
X82247150Y-42500000D01*
X67000000Y-48000000D02*
X67000000Y-60000000D01*
X82247150Y-42500000D02*
X82500000Y-42500000D01*
X75500000Y-56000000D02*
X75540000Y-56000000D01*
X73452850Y-42500000D02*
X73521850Y-42569000D01*
X69000000Y-45500000D02*
X70250000Y-44250000D01*
X69000000Y-47880000D02*
X69000000Y-45500000D01*
X90500000Y-56000000D02*
X90500000Y-52000000D01*
X74428150Y-42569000D02*
X74497150Y-42500000D01*
X71000000Y-73000000D02*
X72799000Y-74799000D01*
X74500000Y-53000000D02*
X74000000Y-53500000D01*
X74500000Y-53000000D02*
X75980000Y-53000000D01*
X69000000Y-47880000D02*
X67120000Y-47880000D01*
X72799000Y-74799000D02*
X83000000Y-74799000D01*
X71020000Y-68020000D02*
X71000000Y-68000000D01*
X72930000Y-65980000D02*
X73500000Y-66550000D01*
X87500000Y-67500000D02*
X88000000Y-68000000D01*
D37*
X76912500Y-67499000D02*
X76292479Y-67499000D01*
X76912500Y-66662500D02*
X76912500Y-67499000D01*
X76000000Y-57000000D02*
X76911500Y-57000000D01*
D36*
X87100000Y-47000000D02*
X87100000Y-45600000D01*
D37*
X84541480Y-59750000D02*
X83825000Y-59750000D01*
D36*
X88000000Y-62500000D02*
X88000000Y-61140000D01*
D37*
X86000000Y-70000000D02*
X87405000Y-70000000D01*
D36*
X73521850Y-42569000D02*
X74428150Y-42569000D01*
D37*
X75771480Y-68020000D02*
X74000000Y-68020000D01*
D36*
X83100000Y-74899000D02*
X83000000Y-74799000D01*
X82500000Y-42500000D02*
X83500000Y-41500000D01*
X88000000Y-62860000D02*
X88000000Y-62500000D01*
X88000000Y-66500000D02*
X88000000Y-64160000D01*
X89500000Y-69000000D02*
X90500000Y-70000000D01*
X90000000Y-56500000D02*
X90500000Y-56000000D01*
X72000000Y-65980000D02*
X72930000Y-65980000D01*
X82200000Y-52000000D02*
X88500000Y-52000000D01*
X90500000Y-73000000D02*
X90000000Y-73500000D01*
D37*
X85500000Y-58500000D02*
X85000000Y-59000000D01*
D36*
X70250000Y-44250000D02*
X72000000Y-42500000D01*
X83100000Y-76140000D02*
X83100000Y-74899000D01*
X90000000Y-45500000D02*
X87000000Y-45500000D01*
X87000000Y-45500000D02*
X84500000Y-45500000D01*
X74497150Y-42500000D02*
X81202850Y-42500000D01*
X90500000Y-70000000D02*
X90500000Y-73000000D01*
X75980000Y-53000000D02*
X75980000Y-49980000D01*
X88000000Y-69000000D02*
X89500000Y-69000000D01*
D37*
X75500000Y-65250000D02*
X74800000Y-65250000D01*
X85000000Y-59291480D02*
X84541480Y-59750000D01*
D36*
X73980000Y-68000000D02*
X74000000Y-68020000D01*
X88000000Y-68000000D02*
X88000000Y-66500000D01*
X67000000Y-60000000D02*
X68500000Y-61500000D01*
X88000000Y-59840000D02*
X88000000Y-58500000D01*
X87000000Y-43500000D02*
X87000000Y-45500000D01*
X88000000Y-57000000D02*
X88500000Y-56500000D01*
X81271850Y-42569000D02*
X82178150Y-42569000D01*
X84500000Y-45500000D02*
X84500000Y-44575000D01*
X71000000Y-66500000D02*
X71000000Y-68000000D01*
X75980000Y-49980000D02*
X71000000Y-45000000D01*
D37*
X74800000Y-65250000D02*
X73500000Y-66550000D01*
X75500000Y-56040000D02*
X75540000Y-56000000D01*
X85000000Y-59000000D02*
X85000000Y-59291480D01*
D36*
X81202850Y-42500000D02*
X81271850Y-42569000D01*
D37*
X76912500Y-57001000D02*
X76912500Y-58337500D01*
D36*
X90500000Y-52000000D02*
X90500000Y-46000000D01*
X86000000Y-67500000D02*
X87500000Y-67500000D01*
X71000000Y-45000000D02*
X70250000Y-44250000D01*
X90000000Y-73500000D02*
X88000000Y-73500000D01*
X74000000Y-53500000D02*
X74000000Y-54500000D01*
X71000000Y-68000000D02*
X71000000Y-73000000D01*
X72000000Y-42500000D02*
X73452850Y-42500000D01*
X72000000Y-65980000D02*
X71520000Y-65980000D01*
X71520000Y-65980000D02*
X71000000Y-66500000D01*
X88500000Y-52000000D02*
X90500000Y-52000000D01*
X87100000Y-45600000D02*
X87000000Y-45500000D01*
X88000000Y-68000000D02*
X88000000Y-69000000D01*
D37*
X87405000Y-70000000D02*
X87925000Y-70520000D01*
X76292479Y-67499000D02*
X75771480Y-68020000D01*
D36*
X85250000Y-41750000D02*
X87000000Y-43500000D01*
X87000000Y-61510000D02*
X87000000Y-62490000D01*
X88000000Y-62500000D02*
X87990000Y-62490000D01*
X88500000Y-56500000D02*
X90000000Y-56500000D01*
X74000000Y-68020000D02*
X71020000Y-68020000D01*
X85250000Y-41500000D02*
X85250000Y-41750000D01*
X88000000Y-58500000D02*
X88000000Y-57000000D01*
X90500000Y-46000000D02*
X90000000Y-45500000D01*
X88000000Y-66500000D02*
X90000000Y-66500000D01*
X86000000Y-58500000D02*
X88000000Y-58500000D01*
D37*
%TO.N,+3.3VA*%
X82000000Y-71000000D02*
X83000000Y-71000000D01*
X80912500Y-70912500D02*
X80912500Y-66662500D01*
X84425000Y-70000000D02*
X83000000Y-70000000D01*
X84425000Y-71500000D02*
X84425000Y-70000000D01*
X83000000Y-70000000D02*
X83000000Y-71000000D01*
X81000000Y-71000000D02*
X80912500Y-70912500D01*
X81000000Y-71000000D02*
X82000000Y-71000000D01*
%TO.N,/NRST*%
X79912500Y-72237000D02*
X80020000Y-72344500D01*
X79912500Y-72237000D02*
X79912500Y-66662500D01*
X80020000Y-72344500D02*
X80020000Y-73000000D01*
%TO.N,/HSE_OUT*%
X78000000Y-69000000D02*
X79412500Y-69000000D01*
X76500000Y-69000000D02*
X78000000Y-69000000D01*
X79412500Y-69000000D02*
X79412500Y-66662500D01*
X76500000Y-71300000D02*
X76500000Y-69000000D01*
%TO.N,/HSE_IN*%
X75500000Y-69000000D02*
X76500000Y-68000000D01*
X74650000Y-73350000D02*
X75449000Y-72551000D01*
X78912500Y-67587500D02*
X78912500Y-66662500D01*
X74300000Y-73350000D02*
X74650000Y-73350000D01*
X74300000Y-73000000D02*
X74500000Y-73000000D01*
X76500000Y-68000000D02*
X78500000Y-68000000D01*
X75500000Y-70000000D02*
X75500000Y-69000000D01*
X78500000Y-68000000D02*
X78912500Y-67587500D01*
X75449000Y-70051000D02*
X75500000Y-70000000D01*
X73949000Y-73000000D02*
X73800000Y-73000000D01*
X75449000Y-72551000D02*
X75449000Y-70051000D01*
%TO.N,VBUS*%
X82000000Y-54500000D02*
X82200000Y-54300000D01*
X78001000Y-49901000D02*
X79500000Y-51400000D01*
D36*
X80800000Y-54300000D02*
X82200000Y-54300000D01*
D37*
X79150000Y-45000000D02*
X79150000Y-47350000D01*
D36*
X80000000Y-53500000D02*
X80800000Y-54300000D01*
X80000000Y-51900000D02*
X80000000Y-53500000D01*
D37*
X79150000Y-47350000D02*
X79001000Y-47499000D01*
X79001000Y-47707521D02*
X78001000Y-48707520D01*
X79001000Y-47499000D02*
X79001000Y-47707521D01*
D36*
X79500000Y-51400000D02*
X80000000Y-51900000D01*
D37*
X78001000Y-48707520D02*
X78001000Y-49901000D01*
D36*
%TO.N,Net-(D1-K)*%
X84500000Y-43000000D02*
X84500000Y-40500000D01*
D37*
%TO.N,/USB_D-*%
X78500000Y-47500000D02*
X78500000Y-45000000D01*
X77500000Y-52000000D02*
X77500000Y-48500000D01*
X78912500Y-53412500D02*
X77500000Y-52000000D01*
X78912500Y-58337500D02*
X78912500Y-53412500D01*
X77500000Y-48500000D02*
X78500000Y-47500000D01*
%TO.N,/USB_D+*%
X77850000Y-46650000D02*
X77850000Y-45000000D01*
X78412500Y-55412500D02*
X77000000Y-54000000D01*
X77000000Y-47500000D02*
X77850000Y-46650000D01*
X77000000Y-53000000D02*
X77000000Y-47500000D01*
X78412500Y-58337500D02*
X78412500Y-55412500D01*
X77000000Y-54000000D02*
X77000000Y-53000000D01*
%TO.N,/SWCLK*%
X71500000Y-55460000D02*
X69000000Y-52960000D01*
X71500000Y-56500000D02*
X71500000Y-55460000D01*
X74750000Y-59750000D02*
X71500000Y-56500000D01*
X75500000Y-59750000D02*
X74750000Y-59750000D01*
%TO.N,/SWDIO*%
X76092034Y-59000000D02*
X75000000Y-59000000D01*
X77912500Y-59412500D02*
X77825000Y-59500000D01*
X72500000Y-56500000D02*
X72500000Y-53920000D01*
X77825000Y-59500000D02*
X76592034Y-59500000D01*
X75000000Y-59000000D02*
X72500000Y-56500000D01*
X72500000Y-53920000D02*
X69000000Y-50420000D01*
X77912500Y-58337500D02*
X77912500Y-59412500D01*
X76592034Y-59500000D02*
X76092034Y-59000000D01*
%TO.N,/USART1_RX*%
X70000000Y-64000000D02*
X70000000Y-65080000D01*
X75500000Y-62750000D02*
X71250000Y-62750000D01*
X70000000Y-65080000D02*
X68500000Y-66580000D01*
X71250000Y-62750000D02*
X70000000Y-64000000D01*
%TO.N,/USART1_TX*%
X75500000Y-62250000D02*
X70290000Y-62250000D01*
X70290000Y-62250000D02*
X68500000Y-64040000D01*
%TO.N,/I2C2_SCL*%
X83825000Y-61250000D02*
X84750000Y-61250000D01*
X87000000Y-63510000D02*
X89550000Y-63510000D01*
X86510000Y-63510000D02*
X87000000Y-63510000D01*
X84750000Y-61250000D02*
X85500000Y-62000000D01*
X85500000Y-62000000D02*
X85500000Y-62500000D01*
X89550000Y-63510000D02*
X90000000Y-63960000D01*
X85500000Y-62500000D02*
X86510000Y-63510000D01*
%TO.N,/I2C2_SDA*%
X85510000Y-60490000D02*
X85250000Y-60750000D01*
X87000000Y-60490000D02*
X85510000Y-60490000D01*
X83825000Y-60750000D02*
X85250000Y-60750000D01*
X87000000Y-60490000D02*
X89070000Y-60490000D01*
X89070000Y-60490000D02*
X90000000Y-61420000D01*
%TO.N,Net-(SW1-B)*%
X74308000Y-76500000D02*
X75808000Y-78000000D01*
X74000000Y-76500000D02*
X74308000Y-76500000D01*
X79000000Y-79000000D02*
X81500000Y-79000000D01*
X81500000Y-79000000D02*
X81500000Y-76240000D01*
X75808000Y-78000000D02*
X78000000Y-78000000D01*
X81500000Y-76240000D02*
X81600000Y-76140000D01*
X78000000Y-78000000D02*
X79000000Y-79000000D01*
%TO.N,Net-(U1-BOOT0)*%
X71000000Y-65000000D02*
X70000000Y-66000000D01*
X70000000Y-66000000D02*
X70000000Y-73500000D01*
X72980000Y-76480000D02*
X72980000Y-76500000D01*
X70000000Y-73500000D02*
X72980000Y-76480000D01*
X75500000Y-63250000D02*
X71750000Y-63250000D01*
X71000000Y-64000000D02*
X71000000Y-65000000D01*
X71750000Y-63250000D02*
X71000000Y-64000000D01*
%TD*%
M02*
