%TF.GenerationSoftware,KiCad,Pcbnew,9.0.1*%
%TF.CreationDate,2025-04-19T10:59:12+01:00*%
%TF.ProjectId,firstkicadproject,66697273-746b-4696-9361-6470726f6a65,rev?*%
%TF.SameCoordinates,Original*%
%TF.FileFunction,Soldermask,Top*%
%TF.FilePolarity,Negative*%
%FSLAX46Y46*%
G04 Gerber Fmt 4.6, Leading zero omitted, Abs format (unit mm)*
G04 Created by KiCad (PCBNEW 9.0.1) date 2025-04-19 10:59:12*
%MOMM*%
%LPD*%
G01*
G04 APERTURE LIST*
G04 Aperture macros list*
%AMRoundRect*
0 Rectangle with rounded corners*
0 $1 Rounding radius*
0 $2 $3 $4 $5 $6 $7 $8 $9 X,Y pos of 4 corners*
0 Add a 4 corners polygon primitive as box body*
4,1,4,$2,$3,$4,$5,$6,$7,$8,$9,$2,$3,0*
0 Add four circle primitives for the rounded corners*
1,1,$1+$1,$2,$3*
1,1,$1+$1,$4,$5*
1,1,$1+$1,$6,$7*
1,1,$1+$1,$8,$9*
0 Add four rect primitives between the rounded corners*
20,1,$1+$1,$2,$3,$4,$5,0*
20,1,$1+$1,$4,$5,$6,$7,0*
20,1,$1+$1,$6,$7,$8,$9,0*
20,1,$1+$1,$8,$9,$2,$3,0*%
G04 Aperture macros list end*
%ADD10RoundRect,0.218750X-0.256250X0.218750X-0.256250X-0.218750X0.256250X-0.218750X0.256250X0.218750X0*%
%ADD11RoundRect,0.140000X-0.140000X-0.170000X0.140000X-0.170000X0.140000X0.170000X-0.140000X0.170000X0*%
%ADD12R,1.700000X1.700000*%
%ADD13C,1.700000*%
%ADD14RoundRect,0.135000X0.185000X-0.135000X0.185000X0.135000X-0.185000X0.135000X-0.185000X-0.135000X0*%
%ADD15RoundRect,0.140000X0.170000X-0.140000X0.170000X0.140000X-0.170000X0.140000X-0.170000X-0.140000X0*%
%ADD16RoundRect,0.218750X-0.218750X-0.256250X0.218750X-0.256250X0.218750X0.256250X-0.218750X0.256250X0*%
%ADD17RoundRect,0.135000X0.135000X0.185000X-0.135000X0.185000X-0.135000X-0.185000X0.135000X-0.185000X0*%
%ADD18RoundRect,0.140000X-0.170000X0.140000X-0.170000X-0.140000X0.170000X-0.140000X0.170000X0.140000X0*%
%ADD19C,2.200000*%
%ADD20RoundRect,0.225000X0.250000X-0.225000X0.250000X0.225000X-0.250000X0.225000X-0.250000X-0.225000X0*%
%ADD21RoundRect,0.250000X0.475000X-0.250000X0.475000X0.250000X-0.475000X0.250000X-0.475000X-0.250000X0*%
%ADD22RoundRect,0.375000X-0.625000X-0.375000X0.625000X-0.375000X0.625000X0.375000X-0.625000X0.375000X0*%
%ADD23RoundRect,0.500000X-0.500000X-1.400000X0.500000X-1.400000X0.500000X1.400000X-0.500000X1.400000X0*%
%ADD24RoundRect,0.075000X0.075000X-0.662500X0.075000X0.662500X-0.075000X0.662500X-0.075000X-0.662500X0*%
%ADD25RoundRect,0.075000X0.662500X-0.075000X0.662500X0.075000X-0.662500X0.075000X-0.662500X-0.075000X0*%
%ADD26RoundRect,0.250000X-0.250000X-0.475000X0.250000X-0.475000X0.250000X0.475000X-0.250000X0.475000X0*%
%ADD27R,1.400000X1.200000*%
%ADD28O,0.800000X0.800000*%
%ADD29R,0.450000X1.300000*%
%ADD30O,1.150000X1.800000*%
%ADD31O,1.450000X2.000000*%
%ADD32R,1.000000X0.800000*%
%ADD33C,0.900000*%
%ADD34R,0.700000X1.500000*%
%ADD35RoundRect,0.135000X-0.185000X0.135000X-0.185000X-0.135000X0.185000X-0.135000X0.185000X0.135000X0*%
%ADD36RoundRect,0.140000X0.140000X0.170000X-0.140000X0.170000X-0.140000X-0.170000X0.140000X-0.170000X0*%
G04 APERTURE END LIST*
D10*
%TO.C,D1*%
X84500000Y-43000000D03*
X84500000Y-44575000D03*
%TD*%
D11*
%TO.C,C2*%
X75540000Y-56000000D03*
X76500000Y-56000000D03*
%TD*%
D12*
%TO.C,J3*%
X68500000Y-61500000D03*
D13*
X68500000Y-64040000D03*
X68500000Y-66580000D03*
X68500000Y-69120000D03*
%TD*%
D12*
%TO.C,J2*%
X69000000Y-47880000D03*
D13*
X69000000Y-50420000D03*
X69000000Y-52960000D03*
X69000000Y-55500000D03*
%TD*%
D14*
%TO.C,R3*%
X84500000Y-40500000D03*
X84500000Y-39480000D03*
%TD*%
D15*
%TO.C,C1*%
X72000000Y-65980000D03*
X72000000Y-65020000D03*
%TD*%
D16*
%TO.C,FB1*%
X84425000Y-70000000D03*
X86000000Y-70000000D03*
%TD*%
D11*
%TO.C,C9*%
X80020000Y-73000000D03*
X80980000Y-73000000D03*
%TD*%
%TO.C,C7*%
X84425000Y-71500000D03*
X85385000Y-71500000D03*
%TD*%
D17*
%TO.C,R2*%
X77000000Y-53000000D03*
X75980000Y-53000000D03*
%TD*%
D14*
%TO.C,R4*%
X87000000Y-63510000D03*
X87000000Y-62490000D03*
%TD*%
D18*
%TO.C,C10*%
X78000000Y-69000000D03*
X78000000Y-69960000D03*
%TD*%
D19*
%TO.C,H4*%
X69500000Y-77000000D03*
%TD*%
D17*
%TO.C,R1*%
X74000000Y-76500000D03*
X72980000Y-76500000D03*
%TD*%
D20*
%TO.C,C5*%
X73500000Y-66550000D03*
X73500000Y-65000000D03*
%TD*%
D21*
%TO.C,C12*%
X79500000Y-51400000D03*
X79500000Y-49500000D03*
%TD*%
D22*
%TO.C,U2*%
X82200000Y-49700000D03*
X82200000Y-52000000D03*
D23*
X88500000Y-52000000D03*
D22*
X82200000Y-54300000D03*
%TD*%
D18*
%TO.C,C8*%
X87925000Y-70520000D03*
X87925000Y-71480000D03*
%TD*%
D24*
%TO.C,U1*%
X76912500Y-66662500D03*
X77412500Y-66662500D03*
X77912500Y-66662500D03*
X78412500Y-66662500D03*
X78912500Y-66662500D03*
X79412500Y-66662500D03*
X79912500Y-66662500D03*
X80412500Y-66662500D03*
X80912500Y-66662500D03*
X81412500Y-66662500D03*
X81912500Y-66662500D03*
X82412500Y-66662500D03*
D25*
X83825000Y-65250000D03*
X83825000Y-64750000D03*
X83825000Y-64250000D03*
X83825000Y-63750000D03*
X83825000Y-63250000D03*
X83825000Y-62750000D03*
X83825000Y-62250000D03*
X83825000Y-61750000D03*
X83825000Y-61250000D03*
X83825000Y-60750000D03*
X83825000Y-60250000D03*
X83825000Y-59750000D03*
D24*
X82412500Y-58337500D03*
X81912500Y-58337500D03*
X81412500Y-58337500D03*
X80912500Y-58337500D03*
X80412500Y-58337500D03*
X79912500Y-58337500D03*
X79412500Y-58337500D03*
X78912500Y-58337500D03*
X78412500Y-58337500D03*
X77912500Y-58337500D03*
X77412500Y-58337500D03*
X76912500Y-58337500D03*
D25*
X75500000Y-59750000D03*
X75500000Y-60250000D03*
X75500000Y-60750000D03*
X75500000Y-61250000D03*
X75500000Y-61750000D03*
X75500000Y-62250000D03*
X75500000Y-62750000D03*
X75500000Y-63250000D03*
X75500000Y-63750000D03*
X75500000Y-64250000D03*
X75500000Y-64750000D03*
X75500000Y-65250000D03*
%TD*%
D19*
%TO.C,H2*%
X69500000Y-41500000D03*
%TD*%
D18*
%TO.C,C6*%
X82000000Y-71000000D03*
X82000000Y-71960000D03*
%TD*%
D26*
%TO.C,C13*%
X87100000Y-47000000D03*
X89000000Y-47000000D03*
%TD*%
D18*
%TO.C,C3*%
X86000000Y-58500000D03*
X86000000Y-59460000D03*
%TD*%
D19*
%TO.C,H3*%
X89000000Y-77000000D03*
%TD*%
D27*
%TO.C,Y1*%
X74300000Y-73350000D03*
X76500000Y-73350000D03*
X76500000Y-71650000D03*
X74300000Y-71650000D03*
%TD*%
D19*
%TO.C,H1*%
X89000000Y-41500000D03*
%TD*%
D28*
%TO.C,J1*%
X80350000Y-43900000D03*
X75350000Y-43900000D03*
D29*
X79150000Y-45000000D03*
X78500000Y-45000000D03*
X77850000Y-45000000D03*
X77200000Y-45000000D03*
X76550000Y-45000000D03*
D30*
X81725000Y-41150000D03*
D31*
X81575000Y-44950000D03*
X74125000Y-44950000D03*
D30*
X73975000Y-41150000D03*
%TD*%
D32*
%TO.C,SW1*%
X77200000Y-76790000D03*
X77200000Y-79000000D03*
D33*
X79350000Y-77900000D03*
X82350000Y-77900000D03*
D32*
X84500000Y-76790000D03*
X84500000Y-79000000D03*
D34*
X78600000Y-76140000D03*
X81600000Y-76140000D03*
X83100000Y-76140000D03*
%TD*%
D12*
%TO.C,J4*%
X90000000Y-66500000D03*
D13*
X90000000Y-63960000D03*
X90000000Y-61420000D03*
X90000000Y-58880000D03*
%TD*%
D18*
%TO.C,C4*%
X74000000Y-68020000D03*
X74000000Y-68980000D03*
%TD*%
D35*
%TO.C,R5*%
X87000000Y-60490000D03*
X87000000Y-61510000D03*
%TD*%
D36*
%TO.C,C11*%
X75500000Y-70000000D03*
X74540000Y-70000000D03*
%TD*%
M02*
