%TF.GenerationSoftware,KiCad,Pcbnew,9.0.1*%
%TF.CreationDate,2025-04-19T10:59:12+01:00*%
%TF.ProjectId,firstkicadproject,66697273-746b-4696-9361-6470726f6a65,rev?*%
%TF.SameCoordinates,Original*%
%TF.FileFunction,Copper,L2,Bot*%
%TF.FilePolarity,Positive*%
%FSLAX46Y46*%
G04 Gerber Fmt 4.6, Leading zero omitted, Abs format (unit mm)*
G04 Created by KiCad (PCBNEW 9.0.1) date 2025-04-19 10:59:12*
%MOMM*%
%LPD*%
G01*
G04 APERTURE LIST*
%TA.AperFunction,ComponentPad*%
%ADD10R,1.700000X1.700000*%
%TD*%
%TA.AperFunction,ComponentPad*%
%ADD11C,1.700000*%
%TD*%
%TA.AperFunction,HeatsinkPad*%
%ADD12O,1.150000X1.800000*%
%TD*%
%TA.AperFunction,HeatsinkPad*%
%ADD13O,1.450000X2.000000*%
%TD*%
%TA.AperFunction,ViaPad*%
%ADD14C,0.600000*%
%TD*%
%TA.AperFunction,ViaPad*%
%ADD15C,0.700000*%
%TD*%
%TA.AperFunction,Conductor*%
%ADD16C,0.500000*%
%TD*%
G04 APERTURE END LIST*
D10*
%TO.P,J3,1,Pin_1*%
%TO.N,+3.3V*%
X68500000Y-61500000D03*
D11*
%TO.P,J3,2,Pin_2*%
%TO.N,/USART1_TX*%
X68500000Y-64040000D03*
%TO.P,J3,3,Pin_3*%
%TO.N,/USART1_RX*%
X68500000Y-66580000D03*
%TO.P,J3,4,Pin_4*%
%TO.N,GND*%
X68500000Y-69120000D03*
%TD*%
D10*
%TO.P,J2,1,Pin_1*%
%TO.N,+3.3V*%
X69000000Y-47880000D03*
D11*
%TO.P,J2,2,Pin_2*%
%TO.N,/SWDIO*%
X69000000Y-50420000D03*
%TO.P,J2,3,Pin_3*%
%TO.N,/SWCLK*%
X69000000Y-52960000D03*
%TO.P,J2,4,Pin_4*%
%TO.N,GND*%
X69000000Y-55500000D03*
%TD*%
D12*
%TO.P,J1,6,Shield*%
%TO.N,unconnected-(J1-Shield-Pad6)_1*%
X81725000Y-41150000D03*
D13*
%TO.N,unconnected-(J1-Shield-Pad6)_2*%
X81575000Y-44950000D03*
%TO.N,unconnected-(J1-Shield-Pad6)*%
X74125000Y-44950000D03*
D12*
%TO.N,unconnected-(J1-Shield-Pad6)_3*%
X73975000Y-41150000D03*
%TD*%
D10*
%TO.P,J4,1,Pin_1*%
%TO.N,+3.3V*%
X90000000Y-66500000D03*
D11*
%TO.P,J4,2,Pin_2*%
%TO.N,/I2C2_SCL*%
X90000000Y-63960000D03*
%TO.P,J4,3,Pin_3*%
%TO.N,/I2C2_SDA*%
X90000000Y-61420000D03*
%TO.P,J4,4,Pin_4*%
%TO.N,GND*%
X90000000Y-58880000D03*
%TD*%
D14*
%TO.N,GND*%
X77500000Y-65000000D03*
D15*
X73000000Y-70000000D03*
D14*
X78000000Y-71000000D03*
X86500000Y-72000000D03*
X89500000Y-48500000D03*
X80000000Y-48000000D03*
X76000000Y-76000000D03*
X76500000Y-55000000D03*
X74850000Y-69000000D03*
X76000000Y-47500000D03*
X80500000Y-65000000D03*
X78000000Y-74000000D03*
X83000000Y-72500000D03*
X82000000Y-60500000D03*
X82000000Y-73000000D03*
X89500000Y-72000000D03*
X85000000Y-39500000D03*
X72500000Y-71000000D03*
X81000000Y-48000000D03*
%TO.N,+3.3V*%
X88000000Y-59840000D03*
X88000000Y-64160000D03*
X88000000Y-62860000D03*
X88000000Y-61140000D03*
X85250000Y-41500000D03*
X83500000Y-41500000D03*
%TD*%
D16*
%TO.N,+3.3V*%
X88000000Y-61140000D02*
X88000000Y-59840000D01*
X85250000Y-41500000D02*
X83500000Y-41500000D01*
X88000000Y-64160000D02*
X88000000Y-62860000D01*
%TD*%
%TA.AperFunction,Conductor*%
%TO.N,GND*%
G36*
X89003243Y-38500669D02*
G01*
X89280182Y-38515184D01*
X89287575Y-38515794D01*
X89349875Y-38522813D01*
X89355353Y-38523555D01*
X89597128Y-38561848D01*
X89605289Y-38563423D01*
X89660830Y-38576100D01*
X89665181Y-38577179D01*
X89908157Y-38642284D01*
X89916999Y-38645013D01*
X89959629Y-38659930D01*
X89963079Y-38661195D01*
X90209378Y-38755739D01*
X90218711Y-38759770D01*
X90239307Y-38769689D01*
X90241754Y-38770900D01*
X90493968Y-38899411D01*
X90505203Y-38905898D01*
X90757608Y-39069812D01*
X90768109Y-39077441D01*
X91002010Y-39266850D01*
X91011655Y-39275535D01*
X91224464Y-39488344D01*
X91233149Y-39497989D01*
X91422558Y-39731890D01*
X91430187Y-39742391D01*
X91594101Y-39994796D01*
X91600591Y-40006036D01*
X91729075Y-40258199D01*
X91730309Y-40260691D01*
X91740223Y-40281277D01*
X91744268Y-40290643D01*
X91838791Y-40536887D01*
X91840068Y-40540369D01*
X91854985Y-40582999D01*
X91857719Y-40591860D01*
X91922806Y-40834766D01*
X91923923Y-40839269D01*
X91936569Y-40894679D01*
X91938150Y-40902872D01*
X91976440Y-41144627D01*
X91977187Y-41150142D01*
X91984204Y-41212424D01*
X91984814Y-41219816D01*
X91999330Y-41496755D01*
X91999500Y-41503246D01*
X91999500Y-76996753D01*
X91999330Y-77003244D01*
X91984814Y-77280182D01*
X91984204Y-77287574D01*
X91977187Y-77349856D01*
X91976440Y-77355371D01*
X91938150Y-77597126D01*
X91936569Y-77605319D01*
X91923923Y-77660729D01*
X91922806Y-77665232D01*
X91857719Y-77908138D01*
X91854985Y-77916999D01*
X91840068Y-77959629D01*
X91838791Y-77963111D01*
X91744268Y-78209355D01*
X91740223Y-78218721D01*
X91730309Y-78239307D01*
X91729075Y-78241799D01*
X91600591Y-78493964D01*
X91594105Y-78505197D01*
X91549697Y-78573581D01*
X91430187Y-78757609D01*
X91422558Y-78768109D01*
X91233149Y-79002010D01*
X91224464Y-79011655D01*
X91011655Y-79224464D01*
X91002010Y-79233149D01*
X90768109Y-79422558D01*
X90757609Y-79430187D01*
X90505197Y-79594105D01*
X90493964Y-79600591D01*
X90241799Y-79729075D01*
X90239307Y-79730309D01*
X90218721Y-79740223D01*
X90209355Y-79744268D01*
X89963111Y-79838791D01*
X89959629Y-79840068D01*
X89916999Y-79854985D01*
X89908138Y-79857719D01*
X89665232Y-79922806D01*
X89660729Y-79923923D01*
X89605319Y-79936569D01*
X89597126Y-79938150D01*
X89355371Y-79976440D01*
X89349856Y-79977187D01*
X89287574Y-79984204D01*
X89280182Y-79984814D01*
X89003244Y-79999330D01*
X88996753Y-79999500D01*
X69503246Y-79999500D01*
X69496757Y-79999330D01*
X69486676Y-79998801D01*
X69219816Y-79984814D01*
X69212424Y-79984204D01*
X69150142Y-79977187D01*
X69144627Y-79976440D01*
X68902872Y-79938150D01*
X68894679Y-79936569D01*
X68866044Y-79930033D01*
X68839245Y-79923917D01*
X68834766Y-79922806D01*
X68591860Y-79857719D01*
X68582999Y-79854985D01*
X68540369Y-79840068D01*
X68536887Y-79838791D01*
X68290643Y-79744268D01*
X68281277Y-79740223D01*
X68260691Y-79730309D01*
X68258199Y-79729075D01*
X68006036Y-79600591D01*
X67994796Y-79594101D01*
X67742391Y-79430187D01*
X67731890Y-79422558D01*
X67497989Y-79233149D01*
X67488344Y-79224464D01*
X67275535Y-79011655D01*
X67266850Y-79002010D01*
X67077441Y-78768109D01*
X67069812Y-78757608D01*
X66950303Y-78573580D01*
X66905896Y-78505199D01*
X66899408Y-78493963D01*
X66770900Y-78241754D01*
X66769689Y-78239307D01*
X66759775Y-78218721D01*
X66755739Y-78209378D01*
X66661195Y-77963079D01*
X66659930Y-77959629D01*
X66645013Y-77916999D01*
X66642284Y-77908157D01*
X66577179Y-77665181D01*
X66576100Y-77660830D01*
X66563423Y-77605289D01*
X66561848Y-77597126D01*
X66557264Y-77568182D01*
X66523555Y-77355353D01*
X66522811Y-77349856D01*
X66515794Y-77287574D01*
X66515184Y-77280181D01*
X66500670Y-77003243D01*
X66500500Y-76996753D01*
X66500500Y-76893713D01*
X68149500Y-76893713D01*
X68149500Y-77106286D01*
X68182324Y-77313533D01*
X68182754Y-77316243D01*
X68232721Y-77470026D01*
X68248444Y-77518414D01*
X68344951Y-77707820D01*
X68469890Y-77879786D01*
X68620213Y-78030109D01*
X68792179Y-78155048D01*
X68792181Y-78155049D01*
X68792184Y-78155051D01*
X68981588Y-78251557D01*
X69183757Y-78317246D01*
X69393713Y-78350500D01*
X69393714Y-78350500D01*
X69606286Y-78350500D01*
X69606287Y-78350500D01*
X69816243Y-78317246D01*
X70018412Y-78251557D01*
X70207816Y-78155051D01*
X70277639Y-78104322D01*
X70379786Y-78030109D01*
X70379788Y-78030106D01*
X70379792Y-78030104D01*
X70440901Y-77968995D01*
X78649499Y-77968995D01*
X78676418Y-78104322D01*
X78676421Y-78104332D01*
X78729221Y-78231804D01*
X78729228Y-78231817D01*
X78805885Y-78346541D01*
X78805888Y-78346545D01*
X78903454Y-78444111D01*
X78903458Y-78444114D01*
X79018182Y-78520771D01*
X79018195Y-78520778D01*
X79145667Y-78573578D01*
X79145672Y-78573580D01*
X79145676Y-78573580D01*
X79145677Y-78573581D01*
X79281004Y-78600500D01*
X79281007Y-78600500D01*
X79418995Y-78600500D01*
X79510041Y-78582389D01*
X79554328Y-78573580D01*
X79681811Y-78520775D01*
X79796542Y-78444114D01*
X79894114Y-78346542D01*
X79970775Y-78231811D01*
X80023580Y-78104328D01*
X80050500Y-77968995D01*
X81649499Y-77968995D01*
X81676418Y-78104322D01*
X81676421Y-78104332D01*
X81729221Y-78231804D01*
X81729228Y-78231817D01*
X81805885Y-78346541D01*
X81805888Y-78346545D01*
X81903454Y-78444111D01*
X81903458Y-78444114D01*
X82018182Y-78520771D01*
X82018195Y-78520778D01*
X82145667Y-78573578D01*
X82145672Y-78573580D01*
X82145676Y-78573580D01*
X82145677Y-78573581D01*
X82281004Y-78600500D01*
X82281007Y-78600500D01*
X82418995Y-78600500D01*
X82510041Y-78582389D01*
X82554328Y-78573580D01*
X82681811Y-78520775D01*
X82796542Y-78444114D01*
X82894114Y-78346542D01*
X82970775Y-78231811D01*
X83023580Y-78104328D01*
X83050500Y-77968993D01*
X83050500Y-77831007D01*
X83050500Y-77831004D01*
X83023581Y-77695677D01*
X83023580Y-77695676D01*
X83023580Y-77695672D01*
X83023578Y-77695667D01*
X82970778Y-77568195D01*
X82970771Y-77568182D01*
X82894114Y-77453458D01*
X82894111Y-77453454D01*
X82796545Y-77355888D01*
X82796541Y-77355885D01*
X82681817Y-77279228D01*
X82681804Y-77279221D01*
X82554332Y-77226421D01*
X82554322Y-77226418D01*
X82418995Y-77199500D01*
X82418993Y-77199500D01*
X82281007Y-77199500D01*
X82281005Y-77199500D01*
X82145677Y-77226418D01*
X82145667Y-77226421D01*
X82018195Y-77279221D01*
X82018182Y-77279228D01*
X81903458Y-77355885D01*
X81903454Y-77355888D01*
X81805888Y-77453454D01*
X81805885Y-77453458D01*
X81729228Y-77568182D01*
X81729221Y-77568195D01*
X81676421Y-77695667D01*
X81676418Y-77695677D01*
X81649500Y-77831004D01*
X81649500Y-77831007D01*
X81649500Y-77968993D01*
X81649500Y-77968995D01*
X81649499Y-77968995D01*
X80050500Y-77968995D01*
X80050500Y-77968993D01*
X80050500Y-77831007D01*
X80050500Y-77831004D01*
X80023581Y-77695677D01*
X80023580Y-77695676D01*
X80023580Y-77695672D01*
X80023578Y-77695667D01*
X79970778Y-77568195D01*
X79970771Y-77568182D01*
X79894114Y-77453458D01*
X79894111Y-77453454D01*
X79796545Y-77355888D01*
X79796541Y-77355885D01*
X79681817Y-77279228D01*
X79681804Y-77279221D01*
X79554332Y-77226421D01*
X79554322Y-77226418D01*
X79418995Y-77199500D01*
X79418993Y-77199500D01*
X79281007Y-77199500D01*
X79281005Y-77199500D01*
X79145677Y-77226418D01*
X79145667Y-77226421D01*
X79018195Y-77279221D01*
X79018182Y-77279228D01*
X78903458Y-77355885D01*
X78903454Y-77355888D01*
X78805888Y-77453454D01*
X78805885Y-77453458D01*
X78729228Y-77568182D01*
X78729221Y-77568195D01*
X78676421Y-77695667D01*
X78676418Y-77695677D01*
X78649500Y-77831004D01*
X78649500Y-77831007D01*
X78649500Y-77968993D01*
X78649500Y-77968995D01*
X78649499Y-77968995D01*
X70440901Y-77968995D01*
X70530104Y-77879792D01*
X70536680Y-77870740D01*
X70622929Y-77752030D01*
X70655048Y-77707820D01*
X70655051Y-77707816D01*
X70751557Y-77518412D01*
X70817246Y-77316243D01*
X70850500Y-77106287D01*
X70850500Y-76893713D01*
X87649500Y-76893713D01*
X87649500Y-77106286D01*
X87682324Y-77313533D01*
X87682754Y-77316243D01*
X87732721Y-77470026D01*
X87748444Y-77518414D01*
X87844951Y-77707820D01*
X87969890Y-77879786D01*
X88120213Y-78030109D01*
X88292179Y-78155048D01*
X88292181Y-78155049D01*
X88292184Y-78155051D01*
X88481588Y-78251557D01*
X88683757Y-78317246D01*
X88893713Y-78350500D01*
X88893714Y-78350500D01*
X89106286Y-78350500D01*
X89106287Y-78350500D01*
X89316243Y-78317246D01*
X89518412Y-78251557D01*
X89707816Y-78155051D01*
X89777639Y-78104322D01*
X89879786Y-78030109D01*
X89879788Y-78030106D01*
X89879792Y-78030104D01*
X90030104Y-77879792D01*
X90030106Y-77879788D01*
X90030109Y-77879786D01*
X90155048Y-77707820D01*
X90155047Y-77707820D01*
X90155051Y-77707816D01*
X90251557Y-77518412D01*
X90317246Y-77316243D01*
X90350500Y-77106287D01*
X90350500Y-76893713D01*
X90317246Y-76683757D01*
X90251557Y-76481588D01*
X90155051Y-76292184D01*
X90155049Y-76292181D01*
X90155048Y-76292179D01*
X90030109Y-76120213D01*
X89879786Y-75969890D01*
X89707820Y-75844951D01*
X89518414Y-75748444D01*
X89518413Y-75748443D01*
X89518412Y-75748443D01*
X89316243Y-75682754D01*
X89316241Y-75682753D01*
X89316240Y-75682753D01*
X89154957Y-75657208D01*
X89106287Y-75649500D01*
X88893713Y-75649500D01*
X88845042Y-75657208D01*
X88683760Y-75682753D01*
X88481585Y-75748444D01*
X88292179Y-75844951D01*
X88120213Y-75969890D01*
X87969890Y-76120213D01*
X87844951Y-76292179D01*
X87748444Y-76481585D01*
X87682753Y-76683760D01*
X87649500Y-76893713D01*
X70850500Y-76893713D01*
X70817246Y-76683757D01*
X70751557Y-76481588D01*
X70655051Y-76292184D01*
X70655049Y-76292181D01*
X70655048Y-76292179D01*
X70530109Y-76120213D01*
X70379786Y-75969890D01*
X70207820Y-75844951D01*
X70018414Y-75748444D01*
X70018413Y-75748443D01*
X70018412Y-75748443D01*
X69816243Y-75682754D01*
X69816241Y-75682753D01*
X69816240Y-75682753D01*
X69654957Y-75657208D01*
X69606287Y-75649500D01*
X69393713Y-75649500D01*
X69345042Y-75657208D01*
X69183760Y-75682753D01*
X68981585Y-75748444D01*
X68792179Y-75844951D01*
X68620213Y-75969890D01*
X68469890Y-76120213D01*
X68344951Y-76292179D01*
X68248444Y-76481585D01*
X68182753Y-76683760D01*
X68149500Y-76893713D01*
X66500500Y-76893713D01*
X66500500Y-69013753D01*
X67150000Y-69013753D01*
X67150000Y-69226246D01*
X67183242Y-69436127D01*
X67183242Y-69436130D01*
X67248904Y-69638217D01*
X67345375Y-69827550D01*
X67384728Y-69881716D01*
X68017037Y-69249408D01*
X68034075Y-69312993D01*
X68099901Y-69427007D01*
X68192993Y-69520099D01*
X68307007Y-69585925D01*
X68370590Y-69602962D01*
X67738282Y-70235269D01*
X67738282Y-70235270D01*
X67792449Y-70274624D01*
X67981782Y-70371095D01*
X68183870Y-70436757D01*
X68393754Y-70470000D01*
X68606246Y-70470000D01*
X68816127Y-70436757D01*
X68816130Y-70436757D01*
X69018217Y-70371095D01*
X69207554Y-70274622D01*
X69261716Y-70235270D01*
X69261717Y-70235270D01*
X68629408Y-69602962D01*
X68692993Y-69585925D01*
X68807007Y-69520099D01*
X68900099Y-69427007D01*
X68965925Y-69312993D01*
X68982962Y-69249408D01*
X69615270Y-69881717D01*
X69615270Y-69881716D01*
X69654622Y-69827554D01*
X69751095Y-69638217D01*
X69816757Y-69436130D01*
X69816757Y-69436127D01*
X69850000Y-69226246D01*
X69850000Y-69013753D01*
X69816757Y-68803872D01*
X69816757Y-68803869D01*
X69751095Y-68601782D01*
X69654624Y-68412449D01*
X69615270Y-68358282D01*
X69615269Y-68358282D01*
X68982962Y-68990590D01*
X68965925Y-68927007D01*
X68900099Y-68812993D01*
X68807007Y-68719901D01*
X68692993Y-68654075D01*
X68629409Y-68637037D01*
X69261716Y-68004728D01*
X69207550Y-67965375D01*
X69018217Y-67868904D01*
X68989292Y-67859506D01*
X68931616Y-67820068D01*
X68904418Y-67755710D01*
X68916333Y-67686863D01*
X68963577Y-67635388D01*
X68971315Y-67631090D01*
X69102994Y-67563996D01*
X69249501Y-67457553D01*
X69377553Y-67329501D01*
X69483996Y-67182994D01*
X69566211Y-67021639D01*
X69622171Y-66849409D01*
X69636765Y-66757259D01*
X69650500Y-66670551D01*
X69650500Y-66489448D01*
X69634019Y-66385397D01*
X69622171Y-66310591D01*
X69566211Y-66138361D01*
X69566211Y-66138360D01*
X69537740Y-66082484D01*
X69483996Y-65977006D01*
X69470396Y-65958287D01*
X69377558Y-65830505D01*
X69377554Y-65830500D01*
X69249499Y-65702445D01*
X69249494Y-65702441D01*
X69102997Y-65596006D01*
X69102996Y-65596005D01*
X69102994Y-65596004D01*
X69051300Y-65569664D01*
X68941639Y-65513788D01*
X68941636Y-65513787D01*
X68769410Y-65457829D01*
X68609321Y-65432473D01*
X68546186Y-65402544D01*
X68509255Y-65343232D01*
X68510253Y-65273370D01*
X68548863Y-65215137D01*
X68609321Y-65187527D01*
X68679425Y-65176422D01*
X68769409Y-65162171D01*
X68941639Y-65106211D01*
X69102994Y-65023996D01*
X69249501Y-64917553D01*
X69377553Y-64789501D01*
X69483996Y-64642994D01*
X69566211Y-64481639D01*
X69622171Y-64309409D01*
X69636765Y-64217259D01*
X69650500Y-64130551D01*
X69650500Y-63949448D01*
X69634019Y-63845397D01*
X69622171Y-63770591D01*
X69566211Y-63598361D01*
X69566211Y-63598360D01*
X69525450Y-63518363D01*
X69483996Y-63437006D01*
X69425870Y-63357002D01*
X69377558Y-63290505D01*
X69377554Y-63290500D01*
X69249499Y-63162445D01*
X69249494Y-63162441D01*
X69102997Y-63056006D01*
X69102996Y-63056005D01*
X69102994Y-63056004D01*
X69051300Y-63029664D01*
X68941639Y-62973788D01*
X68941636Y-62973787D01*
X68769410Y-62917829D01*
X68637728Y-62896972D01*
X68574594Y-62867042D01*
X68537663Y-62807731D01*
X68538046Y-62780943D01*
X87399500Y-62780943D01*
X87399500Y-62939057D01*
X87430836Y-63056004D01*
X87442527Y-63099636D01*
X87441832Y-63099822D01*
X87449500Y-63138362D01*
X87449500Y-63881637D01*
X87441834Y-63920179D01*
X87442527Y-63920365D01*
X87440423Y-63928214D01*
X87440423Y-63928216D01*
X87399500Y-64080943D01*
X87399500Y-64239056D01*
X87440423Y-64391783D01*
X87440426Y-64391790D01*
X87519475Y-64528709D01*
X87519479Y-64528714D01*
X87519480Y-64528716D01*
X87631284Y-64640520D01*
X87631286Y-64640521D01*
X87631290Y-64640524D01*
X87750760Y-64709499D01*
X87768216Y-64719577D01*
X87920943Y-64760500D01*
X87920945Y-64760500D01*
X88079055Y-64760500D01*
X88079057Y-64760500D01*
X88231784Y-64719577D01*
X88368716Y-64640520D01*
X88480520Y-64528716D01*
X88559577Y-64391784D01*
X88600500Y-64239057D01*
X88600500Y-64080943D01*
X88559577Y-63928216D01*
X88559576Y-63928214D01*
X88557473Y-63920365D01*
X88558165Y-63920179D01*
X88550500Y-63881637D01*
X88550500Y-63138362D01*
X88558167Y-63099822D01*
X88557473Y-63099636D01*
X88562080Y-63082441D01*
X88600500Y-62939057D01*
X88600500Y-62780943D01*
X88559577Y-62628216D01*
X88524539Y-62567527D01*
X88480524Y-62491290D01*
X88480518Y-62491282D01*
X88368717Y-62379481D01*
X88368709Y-62379475D01*
X88231790Y-62300426D01*
X88231786Y-62300424D01*
X88231784Y-62300423D01*
X88079057Y-62259500D01*
X87920943Y-62259500D01*
X87768216Y-62300423D01*
X87768209Y-62300426D01*
X87631290Y-62379475D01*
X87631282Y-62379481D01*
X87519481Y-62491282D01*
X87519475Y-62491290D01*
X87440426Y-62628209D01*
X87440423Y-62628216D01*
X87399500Y-62780943D01*
X68538046Y-62780943D01*
X68538661Y-62737868D01*
X68577271Y-62679636D01*
X68641235Y-62651522D01*
X68657120Y-62650499D01*
X69394864Y-62650499D01*
X69397128Y-62650236D01*
X69402248Y-62649643D01*
X69402252Y-62649642D01*
X69419991Y-62647585D01*
X69522765Y-62602206D01*
X69602206Y-62522765D01*
X69647585Y-62419991D01*
X69650500Y-62394865D01*
X69650499Y-60605136D01*
X69650497Y-60605117D01*
X69647586Y-60580012D01*
X69647585Y-60580010D01*
X69647585Y-60580009D01*
X69602206Y-60477235D01*
X69522765Y-60397794D01*
X69522763Y-60397793D01*
X69419992Y-60352415D01*
X69394865Y-60349500D01*
X67605143Y-60349500D01*
X67605117Y-60349502D01*
X67580012Y-60352413D01*
X67580008Y-60352415D01*
X67477235Y-60397793D01*
X67397794Y-60477234D01*
X67352415Y-60580006D01*
X67352415Y-60580008D01*
X67349500Y-60605131D01*
X67349500Y-62394856D01*
X67349502Y-62394882D01*
X67352413Y-62419987D01*
X67352415Y-62419991D01*
X67397793Y-62522764D01*
X67397794Y-62522765D01*
X67477235Y-62602206D01*
X67580009Y-62647585D01*
X67605135Y-62650500D01*
X68342873Y-62650499D01*
X68409910Y-62670183D01*
X68455665Y-62722987D01*
X68465609Y-62792146D01*
X68436584Y-62855702D01*
X68377806Y-62893476D01*
X68362270Y-62896972D01*
X68230589Y-62917829D01*
X68058363Y-62973787D01*
X68058360Y-62973788D01*
X67897002Y-63056006D01*
X67750505Y-63162441D01*
X67750500Y-63162445D01*
X67622445Y-63290500D01*
X67622441Y-63290505D01*
X67516006Y-63437002D01*
X67433788Y-63598360D01*
X67433787Y-63598363D01*
X67377829Y-63770589D01*
X67349500Y-63949448D01*
X67349500Y-64130551D01*
X67377829Y-64309410D01*
X67433787Y-64481636D01*
X67433788Y-64481639D01*
X67475243Y-64562997D01*
X67514745Y-64640524D01*
X67516006Y-64642997D01*
X67622441Y-64789494D01*
X67622445Y-64789499D01*
X67750500Y-64917554D01*
X67750505Y-64917558D01*
X67878287Y-65010396D01*
X67897006Y-65023996D01*
X68002484Y-65077740D01*
X68058360Y-65106211D01*
X68058363Y-65106212D01*
X68140675Y-65132956D01*
X68230591Y-65162171D01*
X68303639Y-65173740D01*
X68390678Y-65187527D01*
X68453813Y-65217456D01*
X68490744Y-65276768D01*
X68489746Y-65346631D01*
X68451136Y-65404863D01*
X68390678Y-65432473D01*
X68230589Y-65457829D01*
X68058363Y-65513787D01*
X68058360Y-65513788D01*
X67897002Y-65596006D01*
X67750505Y-65702441D01*
X67750500Y-65702445D01*
X67622445Y-65830500D01*
X67622441Y-65830505D01*
X67516006Y-65977002D01*
X67433788Y-66138360D01*
X67433787Y-66138363D01*
X67377829Y-66310589D01*
X67349500Y-66489448D01*
X67349500Y-66670551D01*
X67377829Y-66849410D01*
X67433787Y-67021636D01*
X67433788Y-67021639D01*
X67516006Y-67182997D01*
X67622441Y-67329494D01*
X67622445Y-67329499D01*
X67750500Y-67457554D01*
X67750505Y-67457558D01*
X67840256Y-67522765D01*
X67897006Y-67563996D01*
X67971995Y-67602205D01*
X68028684Y-67631090D01*
X68079480Y-67679065D01*
X68096275Y-67746886D01*
X68073737Y-67813021D01*
X68019022Y-67856472D01*
X68010708Y-67859506D01*
X67981781Y-67868905D01*
X67792439Y-67965380D01*
X67738282Y-68004727D01*
X67738282Y-68004728D01*
X68370591Y-68637037D01*
X68307007Y-68654075D01*
X68192993Y-68719901D01*
X68099901Y-68812993D01*
X68034075Y-68927007D01*
X68017037Y-68990591D01*
X67384728Y-68358282D01*
X67384727Y-68358282D01*
X67345380Y-68412439D01*
X67248904Y-68601782D01*
X67183242Y-68803869D01*
X67183242Y-68803872D01*
X67150000Y-69013753D01*
X66500500Y-69013753D01*
X66500500Y-59760943D01*
X87399500Y-59760943D01*
X87399500Y-59919057D01*
X87430466Y-60034624D01*
X87442527Y-60079636D01*
X87441832Y-60079822D01*
X87449500Y-60118362D01*
X87449500Y-60861637D01*
X87441834Y-60900179D01*
X87442527Y-60900365D01*
X87440423Y-60908214D01*
X87440423Y-60908216D01*
X87399500Y-61060943D01*
X87399500Y-61219057D01*
X87419176Y-61292487D01*
X87440423Y-61371783D01*
X87440426Y-61371790D01*
X87519475Y-61508709D01*
X87519479Y-61508714D01*
X87519480Y-61508716D01*
X87631284Y-61620520D01*
X87631286Y-61620521D01*
X87631290Y-61620524D01*
X87750604Y-61689409D01*
X87768216Y-61699577D01*
X87920943Y-61740500D01*
X87920945Y-61740500D01*
X88079055Y-61740500D01*
X88079057Y-61740500D01*
X88231784Y-61699577D01*
X88368716Y-61620520D01*
X88480520Y-61508716D01*
X88559577Y-61371784D01*
X88600500Y-61219057D01*
X88600500Y-61060943D01*
X88559577Y-60908216D01*
X88559576Y-60908214D01*
X88557473Y-60900365D01*
X88558165Y-60900179D01*
X88550500Y-60861637D01*
X88550500Y-60118362D01*
X88558167Y-60079822D01*
X88557473Y-60079636D01*
X88569534Y-60034624D01*
X88600500Y-59919057D01*
X88600500Y-59760943D01*
X88559577Y-59608216D01*
X88547646Y-59587550D01*
X88480524Y-59471290D01*
X88480518Y-59471282D01*
X88368717Y-59359481D01*
X88368709Y-59359475D01*
X88231790Y-59280426D01*
X88231786Y-59280424D01*
X88231784Y-59280423D01*
X88079057Y-59239500D01*
X87920943Y-59239500D01*
X87768216Y-59280423D01*
X87768209Y-59280426D01*
X87631290Y-59359475D01*
X87631282Y-59359481D01*
X87519481Y-59471282D01*
X87519475Y-59471290D01*
X87440426Y-59608209D01*
X87440423Y-59608216D01*
X87399500Y-59760943D01*
X66500500Y-59760943D01*
X66500500Y-58773753D01*
X88650000Y-58773753D01*
X88650000Y-58986246D01*
X88683242Y-59196127D01*
X88683242Y-59196130D01*
X88748904Y-59398217D01*
X88845375Y-59587550D01*
X88884728Y-59641716D01*
X89517037Y-59009408D01*
X89534075Y-59072993D01*
X89599901Y-59187007D01*
X89692993Y-59280099D01*
X89807007Y-59345925D01*
X89870590Y-59362962D01*
X89238282Y-59995269D01*
X89238282Y-59995270D01*
X89292449Y-60034624D01*
X89481780Y-60131094D01*
X89510705Y-60140492D01*
X89568381Y-60179929D01*
X89595580Y-60244287D01*
X89583667Y-60313134D01*
X89536424Y-60364610D01*
X89528685Y-60368908D01*
X89397004Y-60436004D01*
X89250505Y-60542441D01*
X89250500Y-60542445D01*
X89122445Y-60670500D01*
X89122441Y-60670505D01*
X89016006Y-60817002D01*
X88933788Y-60978360D01*
X88933787Y-60978363D01*
X88877829Y-61150589D01*
X88849500Y-61329448D01*
X88849500Y-61510551D01*
X88877829Y-61689410D01*
X88933787Y-61861636D01*
X88933788Y-61861639D01*
X89016006Y-62022997D01*
X89122441Y-62169494D01*
X89122445Y-62169499D01*
X89250500Y-62297554D01*
X89250505Y-62297558D01*
X89363262Y-62379480D01*
X89397006Y-62403996D01*
X89502484Y-62457740D01*
X89558360Y-62486211D01*
X89558363Y-62486212D01*
X89644476Y-62514191D01*
X89730591Y-62542171D01*
X89803639Y-62553740D01*
X89890678Y-62567527D01*
X89953813Y-62597456D01*
X89990744Y-62656768D01*
X89989746Y-62726631D01*
X89951136Y-62784863D01*
X89890678Y-62812473D01*
X89730589Y-62837829D01*
X89558363Y-62893787D01*
X89558360Y-62893788D01*
X89397002Y-62976006D01*
X89250505Y-63082441D01*
X89250500Y-63082445D01*
X89122445Y-63210500D01*
X89122441Y-63210505D01*
X89016006Y-63357002D01*
X88933788Y-63518360D01*
X88933787Y-63518363D01*
X88877829Y-63690589D01*
X88849500Y-63869448D01*
X88849500Y-64050551D01*
X88877829Y-64229410D01*
X88933787Y-64401636D01*
X88933788Y-64401639D01*
X88974551Y-64481639D01*
X88998538Y-64528716D01*
X89016006Y-64562997D01*
X89122441Y-64709494D01*
X89122445Y-64709499D01*
X89250500Y-64837554D01*
X89250505Y-64837558D01*
X89360617Y-64917558D01*
X89397006Y-64943996D01*
X89502484Y-64997740D01*
X89558360Y-65026211D01*
X89558363Y-65026212D01*
X89644476Y-65054191D01*
X89730591Y-65082171D01*
X89834716Y-65098662D01*
X89862270Y-65103027D01*
X89925405Y-65132956D01*
X89962336Y-65192268D01*
X89961338Y-65262130D01*
X89922728Y-65320363D01*
X89858765Y-65348477D01*
X89842872Y-65349500D01*
X89105143Y-65349500D01*
X89105117Y-65349502D01*
X89080012Y-65352413D01*
X89080008Y-65352415D01*
X88977235Y-65397793D01*
X88897794Y-65477234D01*
X88852415Y-65580006D01*
X88852415Y-65580008D01*
X88849500Y-65605131D01*
X88849500Y-67394856D01*
X88849502Y-67394882D01*
X88852413Y-67419987D01*
X88852415Y-67419991D01*
X88897793Y-67522764D01*
X88897794Y-67522765D01*
X88977235Y-67602206D01*
X89080009Y-67647585D01*
X89105135Y-67650500D01*
X90894864Y-67650499D01*
X90894879Y-67650497D01*
X90894882Y-67650497D01*
X90919987Y-67647586D01*
X90919988Y-67647585D01*
X90919991Y-67647585D01*
X91022765Y-67602206D01*
X91102206Y-67522765D01*
X91147585Y-67419991D01*
X91150500Y-67394865D01*
X91150499Y-65605136D01*
X91150497Y-65605117D01*
X91147586Y-65580012D01*
X91147585Y-65580010D01*
X91147585Y-65580009D01*
X91102206Y-65477235D01*
X91022765Y-65397794D01*
X91022763Y-65397793D01*
X90919992Y-65352415D01*
X90894868Y-65349500D01*
X90157128Y-65349500D01*
X90090089Y-65329815D01*
X90044334Y-65277011D01*
X90034390Y-65207853D01*
X90063415Y-65144297D01*
X90122193Y-65106523D01*
X90137730Y-65103027D01*
X90161014Y-65099338D01*
X90269409Y-65082171D01*
X90441639Y-65026211D01*
X90602994Y-64943996D01*
X90749501Y-64837553D01*
X90877553Y-64709501D01*
X90983996Y-64562994D01*
X91066211Y-64401639D01*
X91122171Y-64229409D01*
X91137829Y-64130546D01*
X91150500Y-64050551D01*
X91150500Y-63869448D01*
X91134019Y-63765397D01*
X91122171Y-63690591D01*
X91066211Y-63518361D01*
X91066211Y-63518360D01*
X91024756Y-63437002D01*
X90983996Y-63357006D01*
X90970396Y-63338287D01*
X90877558Y-63210505D01*
X90877554Y-63210500D01*
X90749499Y-63082445D01*
X90749494Y-63082441D01*
X90602997Y-62976006D01*
X90602996Y-62976005D01*
X90602994Y-62976004D01*
X90530478Y-62939055D01*
X90441639Y-62893788D01*
X90441636Y-62893787D01*
X90269410Y-62837829D01*
X90109321Y-62812473D01*
X90046186Y-62782544D01*
X90009255Y-62723232D01*
X90010253Y-62653370D01*
X90048863Y-62595137D01*
X90109321Y-62567527D01*
X90179425Y-62556422D01*
X90269409Y-62542171D01*
X90441639Y-62486211D01*
X90602994Y-62403996D01*
X90749501Y-62297553D01*
X90877553Y-62169501D01*
X90983996Y-62022994D01*
X91066211Y-61861639D01*
X91122171Y-61689409D01*
X91136765Y-61597259D01*
X91150500Y-61510551D01*
X91150500Y-61329448D01*
X91133015Y-61219055D01*
X91122171Y-61150591D01*
X91066211Y-60978361D01*
X91066211Y-60978360D01*
X91022459Y-60892494D01*
X90983996Y-60817006D01*
X90970396Y-60798287D01*
X90877558Y-60670505D01*
X90877554Y-60670500D01*
X90749499Y-60542445D01*
X90749494Y-60542441D01*
X90602995Y-60436004D01*
X90471314Y-60368908D01*
X90420519Y-60320934D01*
X90403724Y-60253113D01*
X90426262Y-60186978D01*
X90480977Y-60143527D01*
X90489295Y-60140492D01*
X90518217Y-60131095D01*
X90707554Y-60034622D01*
X90761716Y-59995270D01*
X90761717Y-59995270D01*
X90129408Y-59362962D01*
X90192993Y-59345925D01*
X90307007Y-59280099D01*
X90400099Y-59187007D01*
X90465925Y-59072993D01*
X90482962Y-59009408D01*
X91115270Y-59641717D01*
X91115270Y-59641716D01*
X91154622Y-59587554D01*
X91251095Y-59398217D01*
X91316757Y-59196130D01*
X91316757Y-59196127D01*
X91350000Y-58986246D01*
X91350000Y-58773753D01*
X91316757Y-58563872D01*
X91316757Y-58563869D01*
X91251095Y-58361782D01*
X91154624Y-58172449D01*
X91115270Y-58118282D01*
X91115269Y-58118282D01*
X90482962Y-58750590D01*
X90465925Y-58687007D01*
X90400099Y-58572993D01*
X90307007Y-58479901D01*
X90192993Y-58414075D01*
X90129409Y-58397037D01*
X90761716Y-57764728D01*
X90707550Y-57725375D01*
X90518217Y-57628904D01*
X90316129Y-57563242D01*
X90106246Y-57530000D01*
X89893754Y-57530000D01*
X89683872Y-57563242D01*
X89683869Y-57563242D01*
X89481782Y-57628904D01*
X89292439Y-57725380D01*
X89238282Y-57764727D01*
X89238282Y-57764728D01*
X89870591Y-58397037D01*
X89807007Y-58414075D01*
X89692993Y-58479901D01*
X89599901Y-58572993D01*
X89534075Y-58687007D01*
X89517037Y-58750591D01*
X88884728Y-58118282D01*
X88884727Y-58118282D01*
X88845380Y-58172439D01*
X88748904Y-58361782D01*
X88683242Y-58563869D01*
X88683242Y-58563872D01*
X88650000Y-58773753D01*
X66500500Y-58773753D01*
X66500500Y-55393753D01*
X67650000Y-55393753D01*
X67650000Y-55606246D01*
X67683242Y-55816127D01*
X67683242Y-55816130D01*
X67748904Y-56018217D01*
X67845375Y-56207550D01*
X67884728Y-56261716D01*
X68517037Y-55629408D01*
X68534075Y-55692993D01*
X68599901Y-55807007D01*
X68692993Y-55900099D01*
X68807007Y-55965925D01*
X68870590Y-55982962D01*
X68238282Y-56615269D01*
X68238282Y-56615270D01*
X68292449Y-56654624D01*
X68481782Y-56751095D01*
X68683870Y-56816757D01*
X68893754Y-56850000D01*
X69106246Y-56850000D01*
X69316127Y-56816757D01*
X69316130Y-56816757D01*
X69518217Y-56751095D01*
X69707554Y-56654622D01*
X69761716Y-56615270D01*
X69761717Y-56615270D01*
X69129408Y-55982962D01*
X69192993Y-55965925D01*
X69307007Y-55900099D01*
X69400099Y-55807007D01*
X69465925Y-55692993D01*
X69482962Y-55629409D01*
X70115270Y-56261717D01*
X70115270Y-56261716D01*
X70154622Y-56207554D01*
X70251095Y-56018217D01*
X70316757Y-55816130D01*
X70316757Y-55816127D01*
X70350000Y-55606246D01*
X70350000Y-55393753D01*
X70316757Y-55183872D01*
X70316757Y-55183869D01*
X70251095Y-54981782D01*
X70154624Y-54792449D01*
X70115270Y-54738282D01*
X70115269Y-54738282D01*
X69482962Y-55370590D01*
X69465925Y-55307007D01*
X69400099Y-55192993D01*
X69307007Y-55099901D01*
X69192993Y-55034075D01*
X69129409Y-55017037D01*
X69761716Y-54384728D01*
X69707550Y-54345375D01*
X69518217Y-54248904D01*
X69489292Y-54239506D01*
X69431616Y-54200068D01*
X69404418Y-54135710D01*
X69416333Y-54066863D01*
X69463577Y-54015388D01*
X69471315Y-54011090D01*
X69602994Y-53943996D01*
X69749501Y-53837553D01*
X69877553Y-53709501D01*
X69983996Y-53562994D01*
X70066211Y-53401639D01*
X70122171Y-53229409D01*
X70136765Y-53137259D01*
X70150500Y-53050551D01*
X70150500Y-52869448D01*
X70134019Y-52765397D01*
X70122171Y-52690591D01*
X70066211Y-52518361D01*
X70066211Y-52518360D01*
X70037740Y-52462484D01*
X69983996Y-52357006D01*
X69970396Y-52338287D01*
X69877558Y-52210505D01*
X69877554Y-52210500D01*
X69749499Y-52082445D01*
X69749494Y-52082441D01*
X69602997Y-51976006D01*
X69602996Y-51976005D01*
X69602994Y-51976004D01*
X69551300Y-51949664D01*
X69441639Y-51893788D01*
X69441636Y-51893787D01*
X69269410Y-51837829D01*
X69109321Y-51812473D01*
X69046186Y-51782544D01*
X69009255Y-51723232D01*
X69010253Y-51653370D01*
X69048863Y-51595137D01*
X69109321Y-51567527D01*
X69179425Y-51556422D01*
X69269409Y-51542171D01*
X69441639Y-51486211D01*
X69602994Y-51403996D01*
X69749501Y-51297553D01*
X69877553Y-51169501D01*
X69983996Y-51022994D01*
X70066211Y-50861639D01*
X70122171Y-50689409D01*
X70136765Y-50597259D01*
X70150500Y-50510551D01*
X70150500Y-50329448D01*
X70134019Y-50225397D01*
X70122171Y-50150591D01*
X70066211Y-49978361D01*
X70066211Y-49978360D01*
X70037740Y-49922484D01*
X69983996Y-49817006D01*
X69970396Y-49798287D01*
X69877558Y-49670505D01*
X69877554Y-49670500D01*
X69749499Y-49542445D01*
X69749494Y-49542441D01*
X69602997Y-49436006D01*
X69602996Y-49436005D01*
X69602994Y-49436004D01*
X69551300Y-49409664D01*
X69441639Y-49353788D01*
X69441636Y-49353787D01*
X69269410Y-49297829D01*
X69137728Y-49276972D01*
X69074594Y-49247042D01*
X69037663Y-49187731D01*
X69038661Y-49117868D01*
X69077271Y-49059636D01*
X69141235Y-49031522D01*
X69157120Y-49030499D01*
X69894864Y-49030499D01*
X69894879Y-49030497D01*
X69894882Y-49030497D01*
X69919987Y-49027586D01*
X69919988Y-49027585D01*
X69919991Y-49027585D01*
X70022765Y-48982206D01*
X70102206Y-48902765D01*
X70147585Y-48799991D01*
X70150500Y-48774865D01*
X70150499Y-46985136D01*
X70150497Y-46985117D01*
X70147586Y-46960012D01*
X70147585Y-46960010D01*
X70147585Y-46960009D01*
X70102206Y-46857235D01*
X70022765Y-46777794D01*
X70022763Y-46777793D01*
X69919992Y-46732415D01*
X69894865Y-46729500D01*
X68105143Y-46729500D01*
X68105117Y-46729502D01*
X68080012Y-46732413D01*
X68080008Y-46732415D01*
X67977235Y-46777793D01*
X67897794Y-46857234D01*
X67852415Y-46960006D01*
X67852415Y-46960008D01*
X67849500Y-46985131D01*
X67849500Y-48774856D01*
X67849502Y-48774882D01*
X67852413Y-48799987D01*
X67852415Y-48799991D01*
X67897793Y-48902764D01*
X67897794Y-48902765D01*
X67977235Y-48982206D01*
X68080009Y-49027585D01*
X68105135Y-49030500D01*
X68842873Y-49030499D01*
X68909910Y-49050183D01*
X68955665Y-49102987D01*
X68965609Y-49172146D01*
X68936584Y-49235702D01*
X68877806Y-49273476D01*
X68862270Y-49276972D01*
X68730589Y-49297829D01*
X68558363Y-49353787D01*
X68558360Y-49353788D01*
X68397002Y-49436006D01*
X68250505Y-49542441D01*
X68250500Y-49542445D01*
X68122445Y-49670500D01*
X68122441Y-49670505D01*
X68016006Y-49817002D01*
X67933788Y-49978360D01*
X67933787Y-49978363D01*
X67877829Y-50150589D01*
X67849500Y-50329448D01*
X67849500Y-50510551D01*
X67877829Y-50689410D01*
X67933787Y-50861636D01*
X67933788Y-50861639D01*
X68016006Y-51022997D01*
X68122441Y-51169494D01*
X68122445Y-51169499D01*
X68250500Y-51297554D01*
X68250505Y-51297558D01*
X68378287Y-51390396D01*
X68397006Y-51403996D01*
X68502484Y-51457740D01*
X68558360Y-51486211D01*
X68558363Y-51486212D01*
X68644476Y-51514191D01*
X68730591Y-51542171D01*
X68803639Y-51553740D01*
X68890678Y-51567527D01*
X68953813Y-51597456D01*
X68990744Y-51656768D01*
X68989746Y-51726631D01*
X68951136Y-51784863D01*
X68890678Y-51812473D01*
X68730589Y-51837829D01*
X68558363Y-51893787D01*
X68558360Y-51893788D01*
X68397002Y-51976006D01*
X68250505Y-52082441D01*
X68250500Y-52082445D01*
X68122445Y-52210500D01*
X68122441Y-52210505D01*
X68016006Y-52357002D01*
X67933788Y-52518360D01*
X67933787Y-52518363D01*
X67877829Y-52690589D01*
X67849500Y-52869448D01*
X67849500Y-53050551D01*
X67877829Y-53229410D01*
X67933787Y-53401636D01*
X67933788Y-53401639D01*
X68016006Y-53562997D01*
X68122441Y-53709494D01*
X68122445Y-53709499D01*
X68250500Y-53837554D01*
X68250505Y-53837558D01*
X68378287Y-53930396D01*
X68397006Y-53943996D01*
X68498780Y-53995853D01*
X68528684Y-54011090D01*
X68579480Y-54059065D01*
X68596275Y-54126886D01*
X68573737Y-54193021D01*
X68519022Y-54236472D01*
X68510708Y-54239506D01*
X68481781Y-54248905D01*
X68292439Y-54345380D01*
X68238282Y-54384727D01*
X68238282Y-54384728D01*
X68870591Y-55017037D01*
X68807007Y-55034075D01*
X68692993Y-55099901D01*
X68599901Y-55192993D01*
X68534075Y-55307007D01*
X68517037Y-55370591D01*
X67884728Y-54738282D01*
X67884727Y-54738282D01*
X67845380Y-54792439D01*
X67748904Y-54981782D01*
X67683242Y-55183869D01*
X67683242Y-55183872D01*
X67650000Y-55393753D01*
X66500500Y-55393753D01*
X66500500Y-44573992D01*
X73099500Y-44573992D01*
X73099500Y-45326007D01*
X73138907Y-45524119D01*
X73138909Y-45524127D01*
X73216212Y-45710752D01*
X73216217Y-45710762D01*
X73328441Y-45878718D01*
X73471281Y-46021558D01*
X73639237Y-46133782D01*
X73639241Y-46133784D01*
X73639244Y-46133786D01*
X73825873Y-46211091D01*
X74023992Y-46250499D01*
X74023996Y-46250500D01*
X74023997Y-46250500D01*
X74226004Y-46250500D01*
X74226005Y-46250499D01*
X74424127Y-46211091D01*
X74610756Y-46133786D01*
X74778718Y-46021558D01*
X74921558Y-45878718D01*
X75033786Y-45710756D01*
X75111091Y-45524127D01*
X75150500Y-45326003D01*
X75150500Y-44724459D01*
X75170185Y-44657420D01*
X75222989Y-44611665D01*
X75274915Y-44603020D01*
X75274915Y-44600500D01*
X75418995Y-44600500D01*
X75510041Y-44582389D01*
X75554328Y-44573580D01*
X75681811Y-44520775D01*
X75796542Y-44444114D01*
X75894114Y-44346542D01*
X75970775Y-44231811D01*
X76023580Y-44104328D01*
X76050500Y-43968995D01*
X79649499Y-43968995D01*
X79676418Y-44104322D01*
X79676421Y-44104332D01*
X79729221Y-44231804D01*
X79729228Y-44231817D01*
X79805885Y-44346541D01*
X79805888Y-44346545D01*
X79903454Y-44444111D01*
X79903458Y-44444114D01*
X80018182Y-44520771D01*
X80018195Y-44520778D01*
X80145667Y-44573578D01*
X80145672Y-44573580D01*
X80145676Y-44573580D01*
X80145677Y-44573581D01*
X80281004Y-44600500D01*
X80425085Y-44600500D01*
X80425085Y-44603289D01*
X80481959Y-44614058D01*
X80532683Y-44662108D01*
X80549500Y-44724459D01*
X80549500Y-45326007D01*
X80588907Y-45524119D01*
X80588909Y-45524127D01*
X80666212Y-45710752D01*
X80666217Y-45710762D01*
X80778441Y-45878718D01*
X80921281Y-46021558D01*
X81089237Y-46133782D01*
X81089241Y-46133784D01*
X81089244Y-46133786D01*
X81275873Y-46211091D01*
X81473992Y-46250499D01*
X81473996Y-46250500D01*
X81473997Y-46250500D01*
X81676004Y-46250500D01*
X81676005Y-46250499D01*
X81874127Y-46211091D01*
X82060756Y-46133786D01*
X82228718Y-46021558D01*
X82371558Y-45878718D01*
X82483786Y-45710756D01*
X82561091Y-45524127D01*
X82600500Y-45326003D01*
X82600500Y-44573997D01*
X82561091Y-44375873D01*
X82483786Y-44189244D01*
X82483784Y-44189241D01*
X82483782Y-44189237D01*
X82371558Y-44021281D01*
X82228718Y-43878441D01*
X82060762Y-43766217D01*
X82060752Y-43766212D01*
X81874127Y-43688909D01*
X81874119Y-43688907D01*
X81676007Y-43649500D01*
X81676003Y-43649500D01*
X81473997Y-43649500D01*
X81473992Y-43649500D01*
X81275880Y-43688907D01*
X81275868Y-43688910D01*
X81172696Y-43731645D01*
X81103226Y-43739114D01*
X81040747Y-43707838D01*
X81010683Y-43664536D01*
X80970778Y-43568195D01*
X80970771Y-43568182D01*
X80894114Y-43453458D01*
X80894111Y-43453454D01*
X80796545Y-43355888D01*
X80796541Y-43355885D01*
X80681817Y-43279228D01*
X80681804Y-43279221D01*
X80554332Y-43226421D01*
X80554322Y-43226418D01*
X80418995Y-43199500D01*
X80418993Y-43199500D01*
X80281007Y-43199500D01*
X80281005Y-43199500D01*
X80145677Y-43226418D01*
X80145667Y-43226421D01*
X80018195Y-43279221D01*
X80018182Y-43279228D01*
X79903458Y-43355885D01*
X79903454Y-43355888D01*
X79805888Y-43453454D01*
X79805885Y-43453458D01*
X79729228Y-43568182D01*
X79729221Y-43568195D01*
X79676421Y-43695667D01*
X79676418Y-43695677D01*
X79649500Y-43831004D01*
X79649500Y-43831007D01*
X79649500Y-43968993D01*
X79649500Y-43968995D01*
X79649499Y-43968995D01*
X76050500Y-43968995D01*
X76050500Y-43968993D01*
X76050500Y-43831007D01*
X76050500Y-43831004D01*
X76023581Y-43695677D01*
X76023580Y-43695676D01*
X76023580Y-43695672D01*
X76004455Y-43649500D01*
X75970778Y-43568195D01*
X75970771Y-43568182D01*
X75894114Y-43453458D01*
X75894111Y-43453454D01*
X75796545Y-43355888D01*
X75796541Y-43355885D01*
X75681817Y-43279228D01*
X75681804Y-43279221D01*
X75554332Y-43226421D01*
X75554322Y-43226418D01*
X75418995Y-43199500D01*
X75418993Y-43199500D01*
X75281007Y-43199500D01*
X75281005Y-43199500D01*
X75145677Y-43226418D01*
X75145667Y-43226421D01*
X75018195Y-43279221D01*
X75018182Y-43279228D01*
X74903458Y-43355885D01*
X74903454Y-43355888D01*
X74805888Y-43453454D01*
X74805885Y-43453458D01*
X74729228Y-43568182D01*
X74729223Y-43568192D01*
X74689316Y-43664537D01*
X74645475Y-43718940D01*
X74579181Y-43741005D01*
X74527303Y-43731645D01*
X74424131Y-43688910D01*
X74424119Y-43688907D01*
X74226007Y-43649500D01*
X74226003Y-43649500D01*
X74023997Y-43649500D01*
X74023992Y-43649500D01*
X73825880Y-43688907D01*
X73825872Y-43688909D01*
X73639247Y-43766212D01*
X73639237Y-43766217D01*
X73471281Y-43878441D01*
X73328441Y-44021281D01*
X73216217Y-44189237D01*
X73216212Y-44189247D01*
X73138909Y-44375872D01*
X73138907Y-44375880D01*
X73099500Y-44573992D01*
X66500500Y-44573992D01*
X66500500Y-41503246D01*
X66500670Y-41496756D01*
X66506071Y-41393713D01*
X68149500Y-41393713D01*
X68149500Y-41606286D01*
X68169153Y-41730374D01*
X68182754Y-41816243D01*
X68236132Y-41980524D01*
X68248444Y-42018414D01*
X68344951Y-42207820D01*
X68469890Y-42379786D01*
X68620213Y-42530109D01*
X68792179Y-42655048D01*
X68792181Y-42655049D01*
X68792184Y-42655051D01*
X68981588Y-42751557D01*
X69183757Y-42817246D01*
X69393713Y-42850500D01*
X69393714Y-42850500D01*
X69606286Y-42850500D01*
X69606287Y-42850500D01*
X69816243Y-42817246D01*
X70018412Y-42751557D01*
X70207816Y-42655051D01*
X70229789Y-42639086D01*
X70379786Y-42530109D01*
X70379788Y-42530106D01*
X70379792Y-42530104D01*
X70530104Y-42379792D01*
X70530106Y-42379788D01*
X70530109Y-42379786D01*
X70655048Y-42207820D01*
X70655047Y-42207820D01*
X70655051Y-42207816D01*
X70751557Y-42018412D01*
X70817246Y-41816243D01*
X70850500Y-41606287D01*
X70850500Y-41393713D01*
X70817246Y-41183757D01*
X70751557Y-40981588D01*
X70655051Y-40792184D01*
X70655047Y-40792179D01*
X70655047Y-40792178D01*
X70616241Y-40738766D01*
X73099500Y-40738766D01*
X73099500Y-41561233D01*
X73133143Y-41730366D01*
X73133146Y-41730378D01*
X73199138Y-41889698D01*
X73199145Y-41889711D01*
X73294954Y-42033098D01*
X73294957Y-42033102D01*
X73416897Y-42155042D01*
X73416901Y-42155045D01*
X73560288Y-42250854D01*
X73560301Y-42250861D01*
X73719621Y-42316853D01*
X73719626Y-42316855D01*
X73888766Y-42350499D01*
X73888769Y-42350500D01*
X73888771Y-42350500D01*
X74061231Y-42350500D01*
X74061232Y-42350499D01*
X74230374Y-42316855D01*
X74389705Y-42250858D01*
X74533099Y-42155045D01*
X74655045Y-42033099D01*
X74750858Y-41889705D01*
X74816855Y-41730374D01*
X74850500Y-41561229D01*
X74850500Y-40738771D01*
X74850500Y-40738768D01*
X74850499Y-40738766D01*
X80849500Y-40738766D01*
X80849500Y-41561233D01*
X80883143Y-41730366D01*
X80883146Y-41730378D01*
X80949138Y-41889698D01*
X80949145Y-41889711D01*
X81044954Y-42033098D01*
X81044957Y-42033102D01*
X81166897Y-42155042D01*
X81166901Y-42155045D01*
X81310288Y-42250854D01*
X81310301Y-42250861D01*
X81469621Y-42316853D01*
X81469626Y-42316855D01*
X81638766Y-42350499D01*
X81638769Y-42350500D01*
X81638771Y-42350500D01*
X81811231Y-42350500D01*
X81811232Y-42350499D01*
X81980374Y-42316855D01*
X82139705Y-42250858D01*
X82283099Y-42155045D01*
X82405045Y-42033099D01*
X82500858Y-41889705D01*
X82566855Y-41730374D01*
X82600500Y-41561229D01*
X82600500Y-41420943D01*
X82899500Y-41420943D01*
X82899500Y-41579057D01*
X82940047Y-41730378D01*
X82940423Y-41731783D01*
X82940426Y-41731790D01*
X83019475Y-41868709D01*
X83019479Y-41868714D01*
X83019480Y-41868716D01*
X83131284Y-41980520D01*
X83131286Y-41980521D01*
X83131290Y-41980524D01*
X83252494Y-42050500D01*
X83268216Y-42059577D01*
X83420943Y-42100500D01*
X83420945Y-42100500D01*
X83579055Y-42100500D01*
X83579057Y-42100500D01*
X83731784Y-42059577D01*
X83731785Y-42059576D01*
X83739635Y-42057473D01*
X83739820Y-42058165D01*
X83778363Y-42050500D01*
X84971637Y-42050500D01*
X85010179Y-42058165D01*
X85010365Y-42057473D01*
X85018214Y-42059576D01*
X85018216Y-42059577D01*
X85170943Y-42100500D01*
X85170945Y-42100500D01*
X85329055Y-42100500D01*
X85329057Y-42100500D01*
X85481784Y-42059577D01*
X85618716Y-41980520D01*
X85730520Y-41868716D01*
X85809577Y-41731784D01*
X85850500Y-41579057D01*
X85850500Y-41420943D01*
X85843204Y-41393713D01*
X87649500Y-41393713D01*
X87649500Y-41606286D01*
X87669153Y-41730374D01*
X87682754Y-41816243D01*
X87736132Y-41980524D01*
X87748444Y-42018414D01*
X87844951Y-42207820D01*
X87969890Y-42379786D01*
X88120213Y-42530109D01*
X88292179Y-42655048D01*
X88292181Y-42655049D01*
X88292184Y-42655051D01*
X88481588Y-42751557D01*
X88683757Y-42817246D01*
X88893713Y-42850500D01*
X88893714Y-42850500D01*
X89106286Y-42850500D01*
X89106287Y-42850500D01*
X89316243Y-42817246D01*
X89518412Y-42751557D01*
X89707816Y-42655051D01*
X89729789Y-42639086D01*
X89879786Y-42530109D01*
X89879788Y-42530106D01*
X89879792Y-42530104D01*
X90030104Y-42379792D01*
X90030106Y-42379788D01*
X90030109Y-42379786D01*
X90155048Y-42207820D01*
X90155047Y-42207820D01*
X90155051Y-42207816D01*
X90251557Y-42018412D01*
X90317246Y-41816243D01*
X90350500Y-41606287D01*
X90350500Y-41393713D01*
X90317246Y-41183757D01*
X90251557Y-40981588D01*
X90155051Y-40792184D01*
X90155049Y-40792181D01*
X90155048Y-40792179D01*
X90030109Y-40620213D01*
X89879786Y-40469890D01*
X89707820Y-40344951D01*
X89518414Y-40248444D01*
X89518413Y-40248443D01*
X89518412Y-40248443D01*
X89316243Y-40182754D01*
X89316241Y-40182753D01*
X89316240Y-40182753D01*
X89154957Y-40157208D01*
X89106287Y-40149500D01*
X88893713Y-40149500D01*
X88845042Y-40157208D01*
X88683760Y-40182753D01*
X88481585Y-40248444D01*
X88292179Y-40344951D01*
X88120213Y-40469890D01*
X87969890Y-40620213D01*
X87844951Y-40792179D01*
X87748444Y-40981585D01*
X87682753Y-41183760D01*
X87649500Y-41393713D01*
X85843204Y-41393713D01*
X85809577Y-41268216D01*
X85741408Y-41150142D01*
X85730524Y-41131290D01*
X85730518Y-41131282D01*
X85618717Y-41019481D01*
X85618709Y-41019475D01*
X85481790Y-40940426D01*
X85481786Y-40940424D01*
X85481784Y-40940423D01*
X85329057Y-40899500D01*
X85170943Y-40899500D01*
X85018216Y-40940423D01*
X85018214Y-40940423D01*
X85010365Y-40942527D01*
X85010179Y-40941834D01*
X84971637Y-40949500D01*
X83778363Y-40949500D01*
X83739820Y-40941834D01*
X83739635Y-40942527D01*
X83731785Y-40940423D01*
X83731784Y-40940423D01*
X83579057Y-40899500D01*
X83420943Y-40899500D01*
X83268216Y-40940423D01*
X83268209Y-40940426D01*
X83131290Y-41019475D01*
X83131282Y-41019481D01*
X83019481Y-41131282D01*
X83019475Y-41131290D01*
X82940426Y-41268209D01*
X82940423Y-41268216D01*
X82899500Y-41420943D01*
X82600500Y-41420943D01*
X82600500Y-40738771D01*
X82600500Y-40738768D01*
X82600499Y-40738766D01*
X82576916Y-40620208D01*
X82566855Y-40569626D01*
X82566853Y-40569621D01*
X82500861Y-40410301D01*
X82500854Y-40410288D01*
X82405045Y-40266901D01*
X82405042Y-40266897D01*
X82283102Y-40144957D01*
X82283098Y-40144954D01*
X82139711Y-40049145D01*
X82139698Y-40049138D01*
X81980378Y-39983146D01*
X81980366Y-39983143D01*
X81811232Y-39949500D01*
X81811229Y-39949500D01*
X81638771Y-39949500D01*
X81638768Y-39949500D01*
X81469633Y-39983143D01*
X81469621Y-39983146D01*
X81310301Y-40049138D01*
X81310288Y-40049145D01*
X81166901Y-40144954D01*
X81166897Y-40144957D01*
X81044957Y-40266897D01*
X81044954Y-40266901D01*
X80949145Y-40410288D01*
X80949138Y-40410301D01*
X80883146Y-40569621D01*
X80883143Y-40569633D01*
X80849500Y-40738766D01*
X74850499Y-40738766D01*
X74826916Y-40620208D01*
X74816855Y-40569626D01*
X74816853Y-40569621D01*
X74750861Y-40410301D01*
X74750854Y-40410288D01*
X74655045Y-40266901D01*
X74655042Y-40266897D01*
X74533102Y-40144957D01*
X74533098Y-40144954D01*
X74389711Y-40049145D01*
X74389698Y-40049138D01*
X74230378Y-39983146D01*
X74230366Y-39983143D01*
X74061232Y-39949500D01*
X74061229Y-39949500D01*
X73888771Y-39949500D01*
X73888768Y-39949500D01*
X73719633Y-39983143D01*
X73719621Y-39983146D01*
X73560301Y-40049138D01*
X73560288Y-40049145D01*
X73416901Y-40144954D01*
X73416897Y-40144957D01*
X73294957Y-40266897D01*
X73294954Y-40266901D01*
X73199145Y-40410288D01*
X73199138Y-40410301D01*
X73133146Y-40569621D01*
X73133143Y-40569633D01*
X73099500Y-40738766D01*
X70616241Y-40738766D01*
X70530109Y-40620213D01*
X70379786Y-40469890D01*
X70207820Y-40344951D01*
X70018414Y-40248444D01*
X70018413Y-40248443D01*
X70018412Y-40248443D01*
X69816243Y-40182754D01*
X69816241Y-40182753D01*
X69816240Y-40182753D01*
X69654957Y-40157208D01*
X69606287Y-40149500D01*
X69393713Y-40149500D01*
X69345042Y-40157208D01*
X69183760Y-40182753D01*
X68981585Y-40248444D01*
X68792179Y-40344951D01*
X68620213Y-40469890D01*
X68469890Y-40620213D01*
X68344951Y-40792179D01*
X68248444Y-40981585D01*
X68182753Y-41183760D01*
X68149500Y-41393713D01*
X66506071Y-41393713D01*
X66506666Y-41382351D01*
X66515184Y-41219817D01*
X66515794Y-41212424D01*
X66522814Y-41150112D01*
X66523553Y-41144658D01*
X66561850Y-40902860D01*
X66563420Y-40894721D01*
X66576105Y-40839144D01*
X66577172Y-40834844D01*
X66642289Y-40591827D01*
X66645007Y-40583016D01*
X66659943Y-40540331D01*
X66661178Y-40536964D01*
X66755746Y-40290603D01*
X66759762Y-40281305D01*
X66769729Y-40260608D01*
X66770863Y-40258318D01*
X66899415Y-40006023D01*
X66905891Y-39994808D01*
X67069819Y-39742380D01*
X67077434Y-39731899D01*
X67266858Y-39497979D01*
X67275525Y-39488354D01*
X67488354Y-39275525D01*
X67497979Y-39266858D01*
X67731899Y-39077434D01*
X67742380Y-39069819D01*
X67994808Y-38905891D01*
X68006023Y-38899415D01*
X68258318Y-38770863D01*
X68260608Y-38769729D01*
X68281305Y-38759762D01*
X68290603Y-38755746D01*
X68536964Y-38661178D01*
X68540331Y-38659943D01*
X68583016Y-38645007D01*
X68591827Y-38642289D01*
X68834844Y-38577172D01*
X68839144Y-38576105D01*
X68894721Y-38563420D01*
X68902860Y-38561850D01*
X69144658Y-38523553D01*
X69150112Y-38522814D01*
X69212430Y-38515793D01*
X69219811Y-38515184D01*
X69496756Y-38500669D01*
X69503246Y-38500500D01*
X88996754Y-38500500D01*
X89003243Y-38500669D01*
G37*
%TD.AperFunction*%
%TD*%
M02*
