%TF.GenerationSoftware,KiCad,Pcbnew,9.0.1*%
%TF.CreationDate,2025-04-19T10:59:12+01:00*%
%TF.ProjectId,firstkicadproject,66697273-746b-4696-9361-6470726f6a65,rev?*%
%TF.SameCoordinates,Original*%
%TF.FileFunction,Legend,Top*%
%TF.FilePolarity,Positive*%
%FSLAX46Y46*%
G04 Gerber Fmt 4.6, Leading zero omitted, Abs format (unit mm)*
G04 Created by KiCad (PCBNEW 9.0.1) date 2025-04-19 10:59:12*
%MOMM*%
%LPD*%
G01*
G04 APERTURE LIST*
%ADD10C,0.160000*%
%ADD11C,0.125000*%
%ADD12C,0.140000*%
%ADD13C,0.180000*%
%ADD14C,0.150000*%
%ADD15C,0.110000*%
%ADD16C,0.120000*%
G04 APERTURE END LIST*
D10*
X71855680Y-53742356D02*
X71893775Y-53628070D01*
X71893775Y-53628070D02*
X71893775Y-53437594D01*
X71893775Y-53437594D02*
X71855680Y-53361403D01*
X71855680Y-53361403D02*
X71817584Y-53323308D01*
X71817584Y-53323308D02*
X71741394Y-53285213D01*
X71741394Y-53285213D02*
X71665203Y-53285213D01*
X71665203Y-53285213D02*
X71589013Y-53323308D01*
X71589013Y-53323308D02*
X71550918Y-53361403D01*
X71550918Y-53361403D02*
X71512822Y-53437594D01*
X71512822Y-53437594D02*
X71474727Y-53589975D01*
X71474727Y-53589975D02*
X71436632Y-53666165D01*
X71436632Y-53666165D02*
X71398537Y-53704260D01*
X71398537Y-53704260D02*
X71322346Y-53742356D01*
X71322346Y-53742356D02*
X71246156Y-53742356D01*
X71246156Y-53742356D02*
X71169965Y-53704260D01*
X71169965Y-53704260D02*
X71131870Y-53666165D01*
X71131870Y-53666165D02*
X71093775Y-53589975D01*
X71093775Y-53589975D02*
X71093775Y-53399498D01*
X71093775Y-53399498D02*
X71131870Y-53285213D01*
X71093775Y-53018546D02*
X71893775Y-52828070D01*
X71893775Y-52828070D02*
X71322346Y-52675689D01*
X71322346Y-52675689D02*
X71893775Y-52523308D01*
X71893775Y-52523308D02*
X71093775Y-52332832D01*
X71893775Y-52028069D02*
X71093775Y-52028069D01*
X71093775Y-52028069D02*
X71093775Y-51837593D01*
X71093775Y-51837593D02*
X71131870Y-51723307D01*
X71131870Y-51723307D02*
X71208060Y-51647117D01*
X71208060Y-51647117D02*
X71284251Y-51609022D01*
X71284251Y-51609022D02*
X71436632Y-51570926D01*
X71436632Y-51570926D02*
X71550918Y-51570926D01*
X71550918Y-51570926D02*
X71703299Y-51609022D01*
X71703299Y-51609022D02*
X71779489Y-51647117D01*
X71779489Y-51647117D02*
X71855680Y-51723307D01*
X71855680Y-51723307D02*
X71893775Y-51837593D01*
X71893775Y-51837593D02*
X71893775Y-52028069D01*
D11*
X89772712Y-53395595D02*
X89772712Y-52595595D01*
X89772712Y-52595595D02*
X90077474Y-52595595D01*
X90077474Y-52595595D02*
X90153664Y-52633690D01*
X90153664Y-52633690D02*
X90191759Y-52671785D01*
X90191759Y-52671785D02*
X90229855Y-52747976D01*
X90229855Y-52747976D02*
X90229855Y-52862261D01*
X90229855Y-52862261D02*
X90191759Y-52938452D01*
X90191759Y-52938452D02*
X90153664Y-52976547D01*
X90153664Y-52976547D02*
X90077474Y-53014642D01*
X90077474Y-53014642D02*
X89772712Y-53014642D01*
X90534616Y-53357500D02*
X90648902Y-53395595D01*
X90648902Y-53395595D02*
X90839378Y-53395595D01*
X90839378Y-53395595D02*
X90915569Y-53357500D01*
X90915569Y-53357500D02*
X90953664Y-53319404D01*
X90953664Y-53319404D02*
X90991759Y-53243214D01*
X90991759Y-53243214D02*
X90991759Y-53167023D01*
X90991759Y-53167023D02*
X90953664Y-53090833D01*
X90953664Y-53090833D02*
X90915569Y-53052738D01*
X90915569Y-53052738D02*
X90839378Y-53014642D01*
X90839378Y-53014642D02*
X90686997Y-52976547D01*
X90686997Y-52976547D02*
X90610807Y-52938452D01*
X90610807Y-52938452D02*
X90572712Y-52900357D01*
X90572712Y-52900357D02*
X90534616Y-52824166D01*
X90534616Y-52824166D02*
X90534616Y-52747976D01*
X90534616Y-52747976D02*
X90572712Y-52671785D01*
X90572712Y-52671785D02*
X90610807Y-52633690D01*
X90610807Y-52633690D02*
X90686997Y-52595595D01*
X90686997Y-52595595D02*
X90877474Y-52595595D01*
X90877474Y-52595595D02*
X90991759Y-52633690D01*
D12*
X77258771Y-46594815D02*
X77258771Y-47242434D01*
X77258771Y-47242434D02*
X77292105Y-47318624D01*
X77292105Y-47318624D02*
X77325438Y-47356720D01*
X77325438Y-47356720D02*
X77392105Y-47394815D01*
X77392105Y-47394815D02*
X77525438Y-47394815D01*
X77525438Y-47394815D02*
X77592105Y-47356720D01*
X77592105Y-47356720D02*
X77625438Y-47318624D01*
X77625438Y-47318624D02*
X77658771Y-47242434D01*
X77658771Y-47242434D02*
X77658771Y-46594815D01*
X77958771Y-47356720D02*
X78058771Y-47394815D01*
X78058771Y-47394815D02*
X78225438Y-47394815D01*
X78225438Y-47394815D02*
X78292104Y-47356720D01*
X78292104Y-47356720D02*
X78325438Y-47318624D01*
X78325438Y-47318624D02*
X78358771Y-47242434D01*
X78358771Y-47242434D02*
X78358771Y-47166243D01*
X78358771Y-47166243D02*
X78325438Y-47090053D01*
X78325438Y-47090053D02*
X78292104Y-47051958D01*
X78292104Y-47051958D02*
X78225438Y-47013862D01*
X78225438Y-47013862D02*
X78092104Y-46975767D01*
X78092104Y-46975767D02*
X78025438Y-46937672D01*
X78025438Y-46937672D02*
X77992104Y-46899577D01*
X77992104Y-46899577D02*
X77958771Y-46823386D01*
X77958771Y-46823386D02*
X77958771Y-46747196D01*
X77958771Y-46747196D02*
X77992104Y-46671005D01*
X77992104Y-46671005D02*
X78025438Y-46632910D01*
X78025438Y-46632910D02*
X78092104Y-46594815D01*
X78092104Y-46594815D02*
X78258771Y-46594815D01*
X78258771Y-46594815D02*
X78358771Y-46632910D01*
X78892105Y-46975767D02*
X78992105Y-47013862D01*
X78992105Y-47013862D02*
X79025438Y-47051958D01*
X79025438Y-47051958D02*
X79058771Y-47128148D01*
X79058771Y-47128148D02*
X79058771Y-47242434D01*
X79058771Y-47242434D02*
X79025438Y-47318624D01*
X79025438Y-47318624D02*
X78992105Y-47356720D01*
X78992105Y-47356720D02*
X78925438Y-47394815D01*
X78925438Y-47394815D02*
X78658771Y-47394815D01*
X78658771Y-47394815D02*
X78658771Y-46594815D01*
X78658771Y-46594815D02*
X78892105Y-46594815D01*
X78892105Y-46594815D02*
X78958771Y-46632910D01*
X78958771Y-46632910D02*
X78992105Y-46671005D01*
X78992105Y-46671005D02*
X79025438Y-46747196D01*
X79025438Y-46747196D02*
X79025438Y-46823386D01*
X79025438Y-46823386D02*
X78992105Y-46899577D01*
X78992105Y-46899577D02*
X78958771Y-46937672D01*
X78958771Y-46937672D02*
X78892105Y-46975767D01*
X78892105Y-46975767D02*
X78658771Y-46975767D01*
D13*
X68483973Y-58905388D02*
X68483973Y-57381579D01*
D10*
X70593775Y-69204260D02*
X71241394Y-69204260D01*
X71241394Y-69204260D02*
X71317584Y-69166165D01*
X71317584Y-69166165D02*
X71355680Y-69128070D01*
X71355680Y-69128070D02*
X71393775Y-69051879D01*
X71393775Y-69051879D02*
X71393775Y-68899498D01*
X71393775Y-68899498D02*
X71355680Y-68823308D01*
X71355680Y-68823308D02*
X71317584Y-68785213D01*
X71317584Y-68785213D02*
X71241394Y-68747117D01*
X71241394Y-68747117D02*
X70593775Y-68747117D01*
X71165203Y-68404261D02*
X71165203Y-68023308D01*
X71393775Y-68480451D02*
X70593775Y-68213784D01*
X70593775Y-68213784D02*
X71393775Y-67947118D01*
X71393775Y-67223308D02*
X71012822Y-67489975D01*
X71393775Y-67680451D02*
X70593775Y-67680451D01*
X70593775Y-67680451D02*
X70593775Y-67375689D01*
X70593775Y-67375689D02*
X70631870Y-67299499D01*
X70631870Y-67299499D02*
X70669965Y-67261404D01*
X70669965Y-67261404D02*
X70746156Y-67223308D01*
X70746156Y-67223308D02*
X70860441Y-67223308D01*
X70860441Y-67223308D02*
X70936632Y-67261404D01*
X70936632Y-67261404D02*
X70974727Y-67299499D01*
X70974727Y-67299499D02*
X71012822Y-67375689D01*
X71012822Y-67375689D02*
X71012822Y-67680451D01*
X70593775Y-66994737D02*
X70593775Y-66537594D01*
X71393775Y-66766166D02*
X70593775Y-66766166D01*
D12*
X80049247Y-74475767D02*
X80163533Y-74513862D01*
X80163533Y-74513862D02*
X80201628Y-74551958D01*
X80201628Y-74551958D02*
X80239724Y-74628148D01*
X80239724Y-74628148D02*
X80239724Y-74742434D01*
X80239724Y-74742434D02*
X80201628Y-74818624D01*
X80201628Y-74818624D02*
X80163533Y-74856720D01*
X80163533Y-74856720D02*
X80087343Y-74894815D01*
X80087343Y-74894815D02*
X79782581Y-74894815D01*
X79782581Y-74894815D02*
X79782581Y-74094815D01*
X79782581Y-74094815D02*
X80049247Y-74094815D01*
X80049247Y-74094815D02*
X80125438Y-74132910D01*
X80125438Y-74132910D02*
X80163533Y-74171005D01*
X80163533Y-74171005D02*
X80201628Y-74247196D01*
X80201628Y-74247196D02*
X80201628Y-74323386D01*
X80201628Y-74323386D02*
X80163533Y-74399577D01*
X80163533Y-74399577D02*
X80125438Y-74437672D01*
X80125438Y-74437672D02*
X80049247Y-74475767D01*
X80049247Y-74475767D02*
X79782581Y-74475767D01*
X80734962Y-74094815D02*
X80887343Y-74094815D01*
X80887343Y-74094815D02*
X80963533Y-74132910D01*
X80963533Y-74132910D02*
X81039724Y-74209100D01*
X81039724Y-74209100D02*
X81077819Y-74361481D01*
X81077819Y-74361481D02*
X81077819Y-74628148D01*
X81077819Y-74628148D02*
X81039724Y-74780529D01*
X81039724Y-74780529D02*
X80963533Y-74856720D01*
X80963533Y-74856720D02*
X80887343Y-74894815D01*
X80887343Y-74894815D02*
X80734962Y-74894815D01*
X80734962Y-74894815D02*
X80658771Y-74856720D01*
X80658771Y-74856720D02*
X80582581Y-74780529D01*
X80582581Y-74780529D02*
X80544485Y-74628148D01*
X80544485Y-74628148D02*
X80544485Y-74361481D01*
X80544485Y-74361481D02*
X80582581Y-74209100D01*
X80582581Y-74209100D02*
X80658771Y-74132910D01*
X80658771Y-74132910D02*
X80734962Y-74094815D01*
X81573057Y-74094815D02*
X81725438Y-74094815D01*
X81725438Y-74094815D02*
X81801628Y-74132910D01*
X81801628Y-74132910D02*
X81877819Y-74209100D01*
X81877819Y-74209100D02*
X81915914Y-74361481D01*
X81915914Y-74361481D02*
X81915914Y-74628148D01*
X81915914Y-74628148D02*
X81877819Y-74780529D01*
X81877819Y-74780529D02*
X81801628Y-74856720D01*
X81801628Y-74856720D02*
X81725438Y-74894815D01*
X81725438Y-74894815D02*
X81573057Y-74894815D01*
X81573057Y-74894815D02*
X81496866Y-74856720D01*
X81496866Y-74856720D02*
X81420676Y-74780529D01*
X81420676Y-74780529D02*
X81382580Y-74628148D01*
X81382580Y-74628148D02*
X81382580Y-74361481D01*
X81382580Y-74361481D02*
X81420676Y-74209100D01*
X81420676Y-74209100D02*
X81496866Y-74132910D01*
X81496866Y-74132910D02*
X81573057Y-74094815D01*
X82144485Y-74094815D02*
X82601628Y-74094815D01*
X82373056Y-74894815D02*
X82373056Y-74094815D01*
D10*
X89606224Y-68795739D02*
X90406224Y-68795739D01*
X90330034Y-69138595D02*
X90368129Y-69176691D01*
X90368129Y-69176691D02*
X90406224Y-69252881D01*
X90406224Y-69252881D02*
X90406224Y-69443357D01*
X90406224Y-69443357D02*
X90368129Y-69519548D01*
X90368129Y-69519548D02*
X90330034Y-69557643D01*
X90330034Y-69557643D02*
X90253843Y-69595738D01*
X90253843Y-69595738D02*
X90177653Y-69595738D01*
X90177653Y-69595738D02*
X90063367Y-69557643D01*
X90063367Y-69557643D02*
X89606224Y-69100500D01*
X89606224Y-69100500D02*
X89606224Y-69595738D01*
X89682415Y-70395739D02*
X89644320Y-70357643D01*
X89644320Y-70357643D02*
X89606224Y-70243358D01*
X89606224Y-70243358D02*
X89606224Y-70167167D01*
X89606224Y-70167167D02*
X89644320Y-70052881D01*
X89644320Y-70052881D02*
X89720510Y-69976691D01*
X89720510Y-69976691D02*
X89796700Y-69938596D01*
X89796700Y-69938596D02*
X89949081Y-69900500D01*
X89949081Y-69900500D02*
X90063367Y-69900500D01*
X90063367Y-69900500D02*
X90215748Y-69938596D01*
X90215748Y-69938596D02*
X90291939Y-69976691D01*
X90291939Y-69976691D02*
X90368129Y-70052881D01*
X90368129Y-70052881D02*
X90406224Y-70167167D01*
X90406224Y-70167167D02*
X90406224Y-70243358D01*
X90406224Y-70243358D02*
X90368129Y-70357643D01*
X90368129Y-70357643D02*
X90330034Y-70395739D01*
D13*
X90983973Y-56905388D02*
X90983973Y-55381579D01*
X67983973Y-72905388D02*
X67983973Y-71381579D01*
D14*
X86454819Y-44738094D02*
X85454819Y-44738094D01*
X85454819Y-44738094D02*
X85454819Y-44499999D01*
X85454819Y-44499999D02*
X85502438Y-44357142D01*
X85502438Y-44357142D02*
X85597676Y-44261904D01*
X85597676Y-44261904D02*
X85692914Y-44214285D01*
X85692914Y-44214285D02*
X85883390Y-44166666D01*
X85883390Y-44166666D02*
X86026247Y-44166666D01*
X86026247Y-44166666D02*
X86216723Y-44214285D01*
X86216723Y-44214285D02*
X86311961Y-44261904D01*
X86311961Y-44261904D02*
X86407200Y-44357142D01*
X86407200Y-44357142D02*
X86454819Y-44499999D01*
X86454819Y-44499999D02*
X86454819Y-44738094D01*
X86454819Y-43214285D02*
X86454819Y-43785713D01*
X86454819Y-43499999D02*
X85454819Y-43499999D01*
X85454819Y-43499999D02*
X85597676Y-43595237D01*
X85597676Y-43595237D02*
X85692914Y-43690475D01*
X85692914Y-43690475D02*
X85740533Y-43785713D01*
X73333333Y-56359580D02*
X73285714Y-56407200D01*
X73285714Y-56407200D02*
X73142857Y-56454819D01*
X73142857Y-56454819D02*
X73047619Y-56454819D01*
X73047619Y-56454819D02*
X72904762Y-56407200D01*
X72904762Y-56407200D02*
X72809524Y-56311961D01*
X72809524Y-56311961D02*
X72761905Y-56216723D01*
X72761905Y-56216723D02*
X72714286Y-56026247D01*
X72714286Y-56026247D02*
X72714286Y-55883390D01*
X72714286Y-55883390D02*
X72761905Y-55692914D01*
X72761905Y-55692914D02*
X72809524Y-55597676D01*
X72809524Y-55597676D02*
X72904762Y-55502438D01*
X72904762Y-55502438D02*
X73047619Y-55454819D01*
X73047619Y-55454819D02*
X73142857Y-55454819D01*
X73142857Y-55454819D02*
X73285714Y-55502438D01*
X73285714Y-55502438D02*
X73333333Y-55550057D01*
X73714286Y-55550057D02*
X73761905Y-55502438D01*
X73761905Y-55502438D02*
X73857143Y-55454819D01*
X73857143Y-55454819D02*
X74095238Y-55454819D01*
X74095238Y-55454819D02*
X74190476Y-55502438D01*
X74190476Y-55502438D02*
X74238095Y-55550057D01*
X74238095Y-55550057D02*
X74285714Y-55645295D01*
X74285714Y-55645295D02*
X74285714Y-55740533D01*
X74285714Y-55740533D02*
X74238095Y-55883390D01*
X74238095Y-55883390D02*
X73666667Y-56454819D01*
X73666667Y-56454819D02*
X74285714Y-56454819D01*
X86454819Y-40146666D02*
X85978628Y-40479999D01*
X86454819Y-40718094D02*
X85454819Y-40718094D01*
X85454819Y-40718094D02*
X85454819Y-40337142D01*
X85454819Y-40337142D02*
X85502438Y-40241904D01*
X85502438Y-40241904D02*
X85550057Y-40194285D01*
X85550057Y-40194285D02*
X85645295Y-40146666D01*
X85645295Y-40146666D02*
X85788152Y-40146666D01*
X85788152Y-40146666D02*
X85883390Y-40194285D01*
X85883390Y-40194285D02*
X85931009Y-40241904D01*
X85931009Y-40241904D02*
X85978628Y-40337142D01*
X85978628Y-40337142D02*
X85978628Y-40718094D01*
X85454819Y-39813332D02*
X85454819Y-39194285D01*
X85454819Y-39194285D02*
X85835771Y-39527618D01*
X85835771Y-39527618D02*
X85835771Y-39384761D01*
X85835771Y-39384761D02*
X85883390Y-39289523D01*
X85883390Y-39289523D02*
X85931009Y-39241904D01*
X85931009Y-39241904D02*
X86026247Y-39194285D01*
X86026247Y-39194285D02*
X86264342Y-39194285D01*
X86264342Y-39194285D02*
X86359580Y-39241904D01*
X86359580Y-39241904D02*
X86407200Y-39289523D01*
X86407200Y-39289523D02*
X86454819Y-39384761D01*
X86454819Y-39384761D02*
X86454819Y-39670475D01*
X86454819Y-39670475D02*
X86407200Y-39765713D01*
X86407200Y-39765713D02*
X86359580Y-39813332D01*
X75359580Y-66666666D02*
X75407200Y-66714285D01*
X75407200Y-66714285D02*
X75454819Y-66857142D01*
X75454819Y-66857142D02*
X75454819Y-66952380D01*
X75454819Y-66952380D02*
X75407200Y-67095237D01*
X75407200Y-67095237D02*
X75311961Y-67190475D01*
X75311961Y-67190475D02*
X75216723Y-67238094D01*
X75216723Y-67238094D02*
X75026247Y-67285713D01*
X75026247Y-67285713D02*
X74883390Y-67285713D01*
X74883390Y-67285713D02*
X74692914Y-67238094D01*
X74692914Y-67238094D02*
X74597676Y-67190475D01*
X74597676Y-67190475D02*
X74502438Y-67095237D01*
X74502438Y-67095237D02*
X74454819Y-66952380D01*
X74454819Y-66952380D02*
X74454819Y-66857142D01*
X74454819Y-66857142D02*
X74502438Y-66714285D01*
X74502438Y-66714285D02*
X74550057Y-66666666D01*
X75454819Y-65714285D02*
X75454819Y-66285713D01*
X75454819Y-65999999D02*
X74454819Y-65999999D01*
X74454819Y-65999999D02*
X74597676Y-66095237D01*
X74597676Y-66095237D02*
X74692914Y-66190475D01*
X74692914Y-66190475D02*
X74740533Y-66285713D01*
X84666666Y-68431009D02*
X84333333Y-68431009D01*
X84333333Y-68954819D02*
X84333333Y-67954819D01*
X84333333Y-67954819D02*
X84809523Y-67954819D01*
X85523809Y-68431009D02*
X85666666Y-68478628D01*
X85666666Y-68478628D02*
X85714285Y-68526247D01*
X85714285Y-68526247D02*
X85761904Y-68621485D01*
X85761904Y-68621485D02*
X85761904Y-68764342D01*
X85761904Y-68764342D02*
X85714285Y-68859580D01*
X85714285Y-68859580D02*
X85666666Y-68907200D01*
X85666666Y-68907200D02*
X85571428Y-68954819D01*
X85571428Y-68954819D02*
X85190476Y-68954819D01*
X85190476Y-68954819D02*
X85190476Y-67954819D01*
X85190476Y-67954819D02*
X85523809Y-67954819D01*
X85523809Y-67954819D02*
X85619047Y-68002438D01*
X85619047Y-68002438D02*
X85666666Y-68050057D01*
X85666666Y-68050057D02*
X85714285Y-68145295D01*
X85714285Y-68145295D02*
X85714285Y-68240533D01*
X85714285Y-68240533D02*
X85666666Y-68335771D01*
X85666666Y-68335771D02*
X85619047Y-68383390D01*
X85619047Y-68383390D02*
X85523809Y-68431009D01*
X85523809Y-68431009D02*
X85190476Y-68431009D01*
X86714285Y-68954819D02*
X86142857Y-68954819D01*
X86428571Y-68954819D02*
X86428571Y-67954819D01*
X86428571Y-67954819D02*
X86333333Y-68097676D01*
X86333333Y-68097676D02*
X86238095Y-68192914D01*
X86238095Y-68192914D02*
X86142857Y-68240533D01*
X78333333Y-73359580D02*
X78285714Y-73407200D01*
X78285714Y-73407200D02*
X78142857Y-73454819D01*
X78142857Y-73454819D02*
X78047619Y-73454819D01*
X78047619Y-73454819D02*
X77904762Y-73407200D01*
X77904762Y-73407200D02*
X77809524Y-73311961D01*
X77809524Y-73311961D02*
X77761905Y-73216723D01*
X77761905Y-73216723D02*
X77714286Y-73026247D01*
X77714286Y-73026247D02*
X77714286Y-72883390D01*
X77714286Y-72883390D02*
X77761905Y-72692914D01*
X77761905Y-72692914D02*
X77809524Y-72597676D01*
X77809524Y-72597676D02*
X77904762Y-72502438D01*
X77904762Y-72502438D02*
X78047619Y-72454819D01*
X78047619Y-72454819D02*
X78142857Y-72454819D01*
X78142857Y-72454819D02*
X78285714Y-72502438D01*
X78285714Y-72502438D02*
X78333333Y-72550057D01*
X78809524Y-73454819D02*
X79000000Y-73454819D01*
X79000000Y-73454819D02*
X79095238Y-73407200D01*
X79095238Y-73407200D02*
X79142857Y-73359580D01*
X79142857Y-73359580D02*
X79238095Y-73216723D01*
X79238095Y-73216723D02*
X79285714Y-73026247D01*
X79285714Y-73026247D02*
X79285714Y-72645295D01*
X79285714Y-72645295D02*
X79238095Y-72550057D01*
X79238095Y-72550057D02*
X79190476Y-72502438D01*
X79190476Y-72502438D02*
X79095238Y-72454819D01*
X79095238Y-72454819D02*
X78904762Y-72454819D01*
X78904762Y-72454819D02*
X78809524Y-72502438D01*
X78809524Y-72502438D02*
X78761905Y-72550057D01*
X78761905Y-72550057D02*
X78714286Y-72645295D01*
X78714286Y-72645295D02*
X78714286Y-72883390D01*
X78714286Y-72883390D02*
X78761905Y-72978628D01*
X78761905Y-72978628D02*
X78809524Y-73026247D01*
X78809524Y-73026247D02*
X78904762Y-73073866D01*
X78904762Y-73073866D02*
X79095238Y-73073866D01*
X79095238Y-73073866D02*
X79190476Y-73026247D01*
X79190476Y-73026247D02*
X79238095Y-72978628D01*
X79238095Y-72978628D02*
X79285714Y-72883390D01*
X84833333Y-73359580D02*
X84785714Y-73407200D01*
X84785714Y-73407200D02*
X84642857Y-73454819D01*
X84642857Y-73454819D02*
X84547619Y-73454819D01*
X84547619Y-73454819D02*
X84404762Y-73407200D01*
X84404762Y-73407200D02*
X84309524Y-73311961D01*
X84309524Y-73311961D02*
X84261905Y-73216723D01*
X84261905Y-73216723D02*
X84214286Y-73026247D01*
X84214286Y-73026247D02*
X84214286Y-72883390D01*
X84214286Y-72883390D02*
X84261905Y-72692914D01*
X84261905Y-72692914D02*
X84309524Y-72597676D01*
X84309524Y-72597676D02*
X84404762Y-72502438D01*
X84404762Y-72502438D02*
X84547619Y-72454819D01*
X84547619Y-72454819D02*
X84642857Y-72454819D01*
X84642857Y-72454819D02*
X84785714Y-72502438D01*
X84785714Y-72502438D02*
X84833333Y-72550057D01*
X85166667Y-72454819D02*
X85833333Y-72454819D01*
X85833333Y-72454819D02*
X85404762Y-73454819D01*
X74333333Y-53454819D02*
X74000000Y-52978628D01*
X73761905Y-53454819D02*
X73761905Y-52454819D01*
X73761905Y-52454819D02*
X74142857Y-52454819D01*
X74142857Y-52454819D02*
X74238095Y-52502438D01*
X74238095Y-52502438D02*
X74285714Y-52550057D01*
X74285714Y-52550057D02*
X74333333Y-52645295D01*
X74333333Y-52645295D02*
X74333333Y-52788152D01*
X74333333Y-52788152D02*
X74285714Y-52883390D01*
X74285714Y-52883390D02*
X74238095Y-52931009D01*
X74238095Y-52931009D02*
X74142857Y-52978628D01*
X74142857Y-52978628D02*
X73761905Y-52978628D01*
X74714286Y-52550057D02*
X74761905Y-52502438D01*
X74761905Y-52502438D02*
X74857143Y-52454819D01*
X74857143Y-52454819D02*
X75095238Y-52454819D01*
X75095238Y-52454819D02*
X75190476Y-52502438D01*
X75190476Y-52502438D02*
X75238095Y-52550057D01*
X75238095Y-52550057D02*
X75285714Y-52645295D01*
X75285714Y-52645295D02*
X75285714Y-52740533D01*
X75285714Y-52740533D02*
X75238095Y-52883390D01*
X75238095Y-52883390D02*
X74666667Y-53454819D01*
X74666667Y-53454819D02*
X75285714Y-53454819D01*
X87454819Y-65166666D02*
X86978628Y-65499999D01*
X87454819Y-65738094D02*
X86454819Y-65738094D01*
X86454819Y-65738094D02*
X86454819Y-65357142D01*
X86454819Y-65357142D02*
X86502438Y-65261904D01*
X86502438Y-65261904D02*
X86550057Y-65214285D01*
X86550057Y-65214285D02*
X86645295Y-65166666D01*
X86645295Y-65166666D02*
X86788152Y-65166666D01*
X86788152Y-65166666D02*
X86883390Y-65214285D01*
X86883390Y-65214285D02*
X86931009Y-65261904D01*
X86931009Y-65261904D02*
X86978628Y-65357142D01*
X86978628Y-65357142D02*
X86978628Y-65738094D01*
X86788152Y-64309523D02*
X87454819Y-64309523D01*
X86407200Y-64547618D02*
X87121485Y-64785713D01*
X87121485Y-64785713D02*
X87121485Y-64166666D01*
X79859580Y-70642857D02*
X79907200Y-70690476D01*
X79907200Y-70690476D02*
X79954819Y-70833333D01*
X79954819Y-70833333D02*
X79954819Y-70928571D01*
X79954819Y-70928571D02*
X79907200Y-71071428D01*
X79907200Y-71071428D02*
X79811961Y-71166666D01*
X79811961Y-71166666D02*
X79716723Y-71214285D01*
X79716723Y-71214285D02*
X79526247Y-71261904D01*
X79526247Y-71261904D02*
X79383390Y-71261904D01*
X79383390Y-71261904D02*
X79192914Y-71214285D01*
X79192914Y-71214285D02*
X79097676Y-71166666D01*
X79097676Y-71166666D02*
X79002438Y-71071428D01*
X79002438Y-71071428D02*
X78954819Y-70928571D01*
X78954819Y-70928571D02*
X78954819Y-70833333D01*
X78954819Y-70833333D02*
X79002438Y-70690476D01*
X79002438Y-70690476D02*
X79050057Y-70642857D01*
X79954819Y-69690476D02*
X79954819Y-70261904D01*
X79954819Y-69976190D02*
X78954819Y-69976190D01*
X78954819Y-69976190D02*
X79097676Y-70071428D01*
X79097676Y-70071428D02*
X79192914Y-70166666D01*
X79192914Y-70166666D02*
X79240533Y-70261904D01*
X78954819Y-69071428D02*
X78954819Y-68976190D01*
X78954819Y-68976190D02*
X79002438Y-68880952D01*
X79002438Y-68880952D02*
X79050057Y-68833333D01*
X79050057Y-68833333D02*
X79145295Y-68785714D01*
X79145295Y-68785714D02*
X79335771Y-68738095D01*
X79335771Y-68738095D02*
X79573866Y-68738095D01*
X79573866Y-68738095D02*
X79764342Y-68785714D01*
X79764342Y-68785714D02*
X79859580Y-68833333D01*
X79859580Y-68833333D02*
X79907200Y-68880952D01*
X79907200Y-68880952D02*
X79954819Y-68976190D01*
X79954819Y-68976190D02*
X79954819Y-69071428D01*
X79954819Y-69071428D02*
X79907200Y-69166666D01*
X79907200Y-69166666D02*
X79859580Y-69214285D01*
X79859580Y-69214285D02*
X79764342Y-69261904D01*
X79764342Y-69261904D02*
X79573866Y-69309523D01*
X79573866Y-69309523D02*
X79335771Y-69309523D01*
X79335771Y-69309523D02*
X79145295Y-69261904D01*
X79145295Y-69261904D02*
X79050057Y-69214285D01*
X79050057Y-69214285D02*
X79002438Y-69166666D01*
X79002438Y-69166666D02*
X78954819Y-69071428D01*
X73333333Y-78454819D02*
X73000000Y-77978628D01*
X72761905Y-78454819D02*
X72761905Y-77454819D01*
X72761905Y-77454819D02*
X73142857Y-77454819D01*
X73142857Y-77454819D02*
X73238095Y-77502438D01*
X73238095Y-77502438D02*
X73285714Y-77550057D01*
X73285714Y-77550057D02*
X73333333Y-77645295D01*
X73333333Y-77645295D02*
X73333333Y-77788152D01*
X73333333Y-77788152D02*
X73285714Y-77883390D01*
X73285714Y-77883390D02*
X73238095Y-77931009D01*
X73238095Y-77931009D02*
X73142857Y-77978628D01*
X73142857Y-77978628D02*
X72761905Y-77978628D01*
X74285714Y-78454819D02*
X73714286Y-78454819D01*
X74000000Y-78454819D02*
X74000000Y-77454819D01*
X74000000Y-77454819D02*
X73904762Y-77597676D01*
X73904762Y-77597676D02*
X73809524Y-77692914D01*
X73809524Y-77692914D02*
X73714286Y-77740533D01*
X73859580Y-63166666D02*
X73907200Y-63214285D01*
X73907200Y-63214285D02*
X73954819Y-63357142D01*
X73954819Y-63357142D02*
X73954819Y-63452380D01*
X73954819Y-63452380D02*
X73907200Y-63595237D01*
X73907200Y-63595237D02*
X73811961Y-63690475D01*
X73811961Y-63690475D02*
X73716723Y-63738094D01*
X73716723Y-63738094D02*
X73526247Y-63785713D01*
X73526247Y-63785713D02*
X73383390Y-63785713D01*
X73383390Y-63785713D02*
X73192914Y-63738094D01*
X73192914Y-63738094D02*
X73097676Y-63690475D01*
X73097676Y-63690475D02*
X73002438Y-63595237D01*
X73002438Y-63595237D02*
X72954819Y-63452380D01*
X72954819Y-63452380D02*
X72954819Y-63357142D01*
X72954819Y-63357142D02*
X73002438Y-63214285D01*
X73002438Y-63214285D02*
X73050057Y-63166666D01*
X72954819Y-62261904D02*
X72954819Y-62738094D01*
X72954819Y-62738094D02*
X73431009Y-62785713D01*
X73431009Y-62785713D02*
X73383390Y-62738094D01*
X73383390Y-62738094D02*
X73335771Y-62642856D01*
X73335771Y-62642856D02*
X73335771Y-62404761D01*
X73335771Y-62404761D02*
X73383390Y-62309523D01*
X73383390Y-62309523D02*
X73431009Y-62261904D01*
X73431009Y-62261904D02*
X73526247Y-62214285D01*
X73526247Y-62214285D02*
X73764342Y-62214285D01*
X73764342Y-62214285D02*
X73859580Y-62261904D01*
X73859580Y-62261904D02*
X73907200Y-62309523D01*
X73907200Y-62309523D02*
X73954819Y-62404761D01*
X73954819Y-62404761D02*
X73954819Y-62642856D01*
X73954819Y-62642856D02*
X73907200Y-62738094D01*
X73907200Y-62738094D02*
X73859580Y-62785713D01*
X77859580Y-50831605D02*
X77907200Y-50879224D01*
X77907200Y-50879224D02*
X77954819Y-51022081D01*
X77954819Y-51022081D02*
X77954819Y-51117319D01*
X77954819Y-51117319D02*
X77907200Y-51260176D01*
X77907200Y-51260176D02*
X77811961Y-51355414D01*
X77811961Y-51355414D02*
X77716723Y-51403033D01*
X77716723Y-51403033D02*
X77526247Y-51450652D01*
X77526247Y-51450652D02*
X77383390Y-51450652D01*
X77383390Y-51450652D02*
X77192914Y-51403033D01*
X77192914Y-51403033D02*
X77097676Y-51355414D01*
X77097676Y-51355414D02*
X77002438Y-51260176D01*
X77002438Y-51260176D02*
X76954819Y-51117319D01*
X76954819Y-51117319D02*
X76954819Y-51022081D01*
X76954819Y-51022081D02*
X77002438Y-50879224D01*
X77002438Y-50879224D02*
X77050057Y-50831605D01*
X77954819Y-49879224D02*
X77954819Y-50450652D01*
X77954819Y-50164938D02*
X76954819Y-50164938D01*
X76954819Y-50164938D02*
X77097676Y-50260176D01*
X77097676Y-50260176D02*
X77192914Y-50355414D01*
X77192914Y-50355414D02*
X77240533Y-50450652D01*
X77050057Y-49498271D02*
X77002438Y-49450652D01*
X77002438Y-49450652D02*
X76954819Y-49355414D01*
X76954819Y-49355414D02*
X76954819Y-49117319D01*
X76954819Y-49117319D02*
X77002438Y-49022081D01*
X77002438Y-49022081D02*
X77050057Y-48974462D01*
X77050057Y-48974462D02*
X77145295Y-48926843D01*
X77145295Y-48926843D02*
X77240533Y-48926843D01*
X77240533Y-48926843D02*
X77383390Y-48974462D01*
X77383390Y-48974462D02*
X77954819Y-49545890D01*
X77954819Y-49545890D02*
X77954819Y-48926843D01*
D15*
X89738095Y-51456899D02*
X89738095Y-52266422D01*
X89738095Y-52266422D02*
X89785714Y-52361660D01*
X89785714Y-52361660D02*
X89833333Y-52409280D01*
X89833333Y-52409280D02*
X89928571Y-52456899D01*
X89928571Y-52456899D02*
X90119047Y-52456899D01*
X90119047Y-52456899D02*
X90214285Y-52409280D01*
X90214285Y-52409280D02*
X90261904Y-52361660D01*
X90261904Y-52361660D02*
X90309523Y-52266422D01*
X90309523Y-52266422D02*
X90309523Y-51456899D01*
X90738095Y-51552137D02*
X90785714Y-51504518D01*
X90785714Y-51504518D02*
X90880952Y-51456899D01*
X90880952Y-51456899D02*
X91119047Y-51456899D01*
X91119047Y-51456899D02*
X91214285Y-51504518D01*
X91214285Y-51504518D02*
X91261904Y-51552137D01*
X91261904Y-51552137D02*
X91309523Y-51647375D01*
X91309523Y-51647375D02*
X91309523Y-51742613D01*
X91309523Y-51742613D02*
X91261904Y-51885470D01*
X91261904Y-51885470D02*
X90690476Y-52456899D01*
X90690476Y-52456899D02*
X91309523Y-52456899D01*
D14*
X88284580Y-73166666D02*
X88332200Y-73214285D01*
X88332200Y-73214285D02*
X88379819Y-73357142D01*
X88379819Y-73357142D02*
X88379819Y-73452380D01*
X88379819Y-73452380D02*
X88332200Y-73595237D01*
X88332200Y-73595237D02*
X88236961Y-73690475D01*
X88236961Y-73690475D02*
X88141723Y-73738094D01*
X88141723Y-73738094D02*
X87951247Y-73785713D01*
X87951247Y-73785713D02*
X87808390Y-73785713D01*
X87808390Y-73785713D02*
X87617914Y-73738094D01*
X87617914Y-73738094D02*
X87522676Y-73690475D01*
X87522676Y-73690475D02*
X87427438Y-73595237D01*
X87427438Y-73595237D02*
X87379819Y-73452380D01*
X87379819Y-73452380D02*
X87379819Y-73357142D01*
X87379819Y-73357142D02*
X87427438Y-73214285D01*
X87427438Y-73214285D02*
X87475057Y-73166666D01*
X87808390Y-72595237D02*
X87760771Y-72690475D01*
X87760771Y-72690475D02*
X87713152Y-72738094D01*
X87713152Y-72738094D02*
X87617914Y-72785713D01*
X87617914Y-72785713D02*
X87570295Y-72785713D01*
X87570295Y-72785713D02*
X87475057Y-72738094D01*
X87475057Y-72738094D02*
X87427438Y-72690475D01*
X87427438Y-72690475D02*
X87379819Y-72595237D01*
X87379819Y-72595237D02*
X87379819Y-72404761D01*
X87379819Y-72404761D02*
X87427438Y-72309523D01*
X87427438Y-72309523D02*
X87475057Y-72261904D01*
X87475057Y-72261904D02*
X87570295Y-72214285D01*
X87570295Y-72214285D02*
X87617914Y-72214285D01*
X87617914Y-72214285D02*
X87713152Y-72261904D01*
X87713152Y-72261904D02*
X87760771Y-72309523D01*
X87760771Y-72309523D02*
X87808390Y-72404761D01*
X87808390Y-72404761D02*
X87808390Y-72595237D01*
X87808390Y-72595237D02*
X87856009Y-72690475D01*
X87856009Y-72690475D02*
X87903628Y-72738094D01*
X87903628Y-72738094D02*
X87998866Y-72785713D01*
X87998866Y-72785713D02*
X88189342Y-72785713D01*
X88189342Y-72785713D02*
X88284580Y-72738094D01*
X88284580Y-72738094D02*
X88332200Y-72690475D01*
X88332200Y-72690475D02*
X88379819Y-72595237D01*
X88379819Y-72595237D02*
X88379819Y-72404761D01*
X88379819Y-72404761D02*
X88332200Y-72309523D01*
X88332200Y-72309523D02*
X88284580Y-72261904D01*
X88284580Y-72261904D02*
X88189342Y-72214285D01*
X88189342Y-72214285D02*
X87998866Y-72214285D01*
X87998866Y-72214285D02*
X87903628Y-72261904D01*
X87903628Y-72261904D02*
X87856009Y-72309523D01*
X87856009Y-72309523D02*
X87808390Y-72404761D01*
X79738095Y-55954819D02*
X79738095Y-56764342D01*
X79738095Y-56764342D02*
X79785714Y-56859580D01*
X79785714Y-56859580D02*
X79833333Y-56907200D01*
X79833333Y-56907200D02*
X79928571Y-56954819D01*
X79928571Y-56954819D02*
X80119047Y-56954819D01*
X80119047Y-56954819D02*
X80214285Y-56907200D01*
X80214285Y-56907200D02*
X80261904Y-56859580D01*
X80261904Y-56859580D02*
X80309523Y-56764342D01*
X80309523Y-56764342D02*
X80309523Y-55954819D01*
X81309523Y-56954819D02*
X80738095Y-56954819D01*
X81023809Y-56954819D02*
X81023809Y-55954819D01*
X81023809Y-55954819D02*
X80928571Y-56097676D01*
X80928571Y-56097676D02*
X80833333Y-56192914D01*
X80833333Y-56192914D02*
X80738095Y-56240533D01*
X82359580Y-69666666D02*
X82407200Y-69714285D01*
X82407200Y-69714285D02*
X82454819Y-69857142D01*
X82454819Y-69857142D02*
X82454819Y-69952380D01*
X82454819Y-69952380D02*
X82407200Y-70095237D01*
X82407200Y-70095237D02*
X82311961Y-70190475D01*
X82311961Y-70190475D02*
X82216723Y-70238094D01*
X82216723Y-70238094D02*
X82026247Y-70285713D01*
X82026247Y-70285713D02*
X81883390Y-70285713D01*
X81883390Y-70285713D02*
X81692914Y-70238094D01*
X81692914Y-70238094D02*
X81597676Y-70190475D01*
X81597676Y-70190475D02*
X81502438Y-70095237D01*
X81502438Y-70095237D02*
X81454819Y-69952380D01*
X81454819Y-69952380D02*
X81454819Y-69857142D01*
X81454819Y-69857142D02*
X81502438Y-69714285D01*
X81502438Y-69714285D02*
X81550057Y-69666666D01*
X81454819Y-68809523D02*
X81454819Y-68999999D01*
X81454819Y-68999999D02*
X81502438Y-69095237D01*
X81502438Y-69095237D02*
X81550057Y-69142856D01*
X81550057Y-69142856D02*
X81692914Y-69238094D01*
X81692914Y-69238094D02*
X81883390Y-69285713D01*
X81883390Y-69285713D02*
X82264342Y-69285713D01*
X82264342Y-69285713D02*
X82359580Y-69238094D01*
X82359580Y-69238094D02*
X82407200Y-69190475D01*
X82407200Y-69190475D02*
X82454819Y-69095237D01*
X82454819Y-69095237D02*
X82454819Y-68904761D01*
X82454819Y-68904761D02*
X82407200Y-68809523D01*
X82407200Y-68809523D02*
X82359580Y-68761904D01*
X82359580Y-68761904D02*
X82264342Y-68714285D01*
X82264342Y-68714285D02*
X82026247Y-68714285D01*
X82026247Y-68714285D02*
X81931009Y-68761904D01*
X81931009Y-68761904D02*
X81883390Y-68809523D01*
X81883390Y-68809523D02*
X81835771Y-68904761D01*
X81835771Y-68904761D02*
X81835771Y-69095237D01*
X81835771Y-69095237D02*
X81883390Y-69190475D01*
X81883390Y-69190475D02*
X81931009Y-69238094D01*
X81931009Y-69238094D02*
X82026247Y-69285713D01*
X83957142Y-47359580D02*
X83909523Y-47407200D01*
X83909523Y-47407200D02*
X83766666Y-47454819D01*
X83766666Y-47454819D02*
X83671428Y-47454819D01*
X83671428Y-47454819D02*
X83528571Y-47407200D01*
X83528571Y-47407200D02*
X83433333Y-47311961D01*
X83433333Y-47311961D02*
X83385714Y-47216723D01*
X83385714Y-47216723D02*
X83338095Y-47026247D01*
X83338095Y-47026247D02*
X83338095Y-46883390D01*
X83338095Y-46883390D02*
X83385714Y-46692914D01*
X83385714Y-46692914D02*
X83433333Y-46597676D01*
X83433333Y-46597676D02*
X83528571Y-46502438D01*
X83528571Y-46502438D02*
X83671428Y-46454819D01*
X83671428Y-46454819D02*
X83766666Y-46454819D01*
X83766666Y-46454819D02*
X83909523Y-46502438D01*
X83909523Y-46502438D02*
X83957142Y-46550057D01*
X84909523Y-47454819D02*
X84338095Y-47454819D01*
X84623809Y-47454819D02*
X84623809Y-46454819D01*
X84623809Y-46454819D02*
X84528571Y-46597676D01*
X84528571Y-46597676D02*
X84433333Y-46692914D01*
X84433333Y-46692914D02*
X84338095Y-46740533D01*
X85242857Y-46454819D02*
X85861904Y-46454819D01*
X85861904Y-46454819D02*
X85528571Y-46835771D01*
X85528571Y-46835771D02*
X85671428Y-46835771D01*
X85671428Y-46835771D02*
X85766666Y-46883390D01*
X85766666Y-46883390D02*
X85814285Y-46931009D01*
X85814285Y-46931009D02*
X85861904Y-47026247D01*
X85861904Y-47026247D02*
X85861904Y-47264342D01*
X85861904Y-47264342D02*
X85814285Y-47359580D01*
X85814285Y-47359580D02*
X85766666Y-47407200D01*
X85766666Y-47407200D02*
X85671428Y-47454819D01*
X85671428Y-47454819D02*
X85385714Y-47454819D01*
X85385714Y-47454819D02*
X85290476Y-47407200D01*
X85290476Y-47407200D02*
X85242857Y-47359580D01*
X84859580Y-57666666D02*
X84907200Y-57714285D01*
X84907200Y-57714285D02*
X84954819Y-57857142D01*
X84954819Y-57857142D02*
X84954819Y-57952380D01*
X84954819Y-57952380D02*
X84907200Y-58095237D01*
X84907200Y-58095237D02*
X84811961Y-58190475D01*
X84811961Y-58190475D02*
X84716723Y-58238094D01*
X84716723Y-58238094D02*
X84526247Y-58285713D01*
X84526247Y-58285713D02*
X84383390Y-58285713D01*
X84383390Y-58285713D02*
X84192914Y-58238094D01*
X84192914Y-58238094D02*
X84097676Y-58190475D01*
X84097676Y-58190475D02*
X84002438Y-58095237D01*
X84002438Y-58095237D02*
X83954819Y-57952380D01*
X83954819Y-57952380D02*
X83954819Y-57857142D01*
X83954819Y-57857142D02*
X84002438Y-57714285D01*
X84002438Y-57714285D02*
X84050057Y-57666666D01*
X83954819Y-57333332D02*
X83954819Y-56714285D01*
X83954819Y-56714285D02*
X84335771Y-57047618D01*
X84335771Y-57047618D02*
X84335771Y-56904761D01*
X84335771Y-56904761D02*
X84383390Y-56809523D01*
X84383390Y-56809523D02*
X84431009Y-56761904D01*
X84431009Y-56761904D02*
X84526247Y-56714285D01*
X84526247Y-56714285D02*
X84764342Y-56714285D01*
X84764342Y-56714285D02*
X84859580Y-56761904D01*
X84859580Y-56761904D02*
X84907200Y-56809523D01*
X84907200Y-56809523D02*
X84954819Y-56904761D01*
X84954819Y-56904761D02*
X84954819Y-57190475D01*
X84954819Y-57190475D02*
X84907200Y-57285713D01*
X84907200Y-57285713D02*
X84859580Y-57333332D01*
X72023809Y-72328628D02*
X72023809Y-72804819D01*
X71690476Y-71804819D02*
X72023809Y-72328628D01*
X72023809Y-72328628D02*
X72357142Y-71804819D01*
X73214285Y-72804819D02*
X72642857Y-72804819D01*
X72928571Y-72804819D02*
X72928571Y-71804819D01*
X72928571Y-71804819D02*
X72833333Y-71947676D01*
X72833333Y-71947676D02*
X72738095Y-72042914D01*
X72738095Y-72042914D02*
X72642857Y-72090533D01*
X75907200Y-79623332D02*
X75954819Y-79480475D01*
X75954819Y-79480475D02*
X75954819Y-79242380D01*
X75954819Y-79242380D02*
X75907200Y-79147142D01*
X75907200Y-79147142D02*
X75859580Y-79099523D01*
X75859580Y-79099523D02*
X75764342Y-79051904D01*
X75764342Y-79051904D02*
X75669104Y-79051904D01*
X75669104Y-79051904D02*
X75573866Y-79099523D01*
X75573866Y-79099523D02*
X75526247Y-79147142D01*
X75526247Y-79147142D02*
X75478628Y-79242380D01*
X75478628Y-79242380D02*
X75431009Y-79432856D01*
X75431009Y-79432856D02*
X75383390Y-79528094D01*
X75383390Y-79528094D02*
X75335771Y-79575713D01*
X75335771Y-79575713D02*
X75240533Y-79623332D01*
X75240533Y-79623332D02*
X75145295Y-79623332D01*
X75145295Y-79623332D02*
X75050057Y-79575713D01*
X75050057Y-79575713D02*
X75002438Y-79528094D01*
X75002438Y-79528094D02*
X74954819Y-79432856D01*
X74954819Y-79432856D02*
X74954819Y-79194761D01*
X74954819Y-79194761D02*
X75002438Y-79051904D01*
X74954819Y-78718570D02*
X75954819Y-78480475D01*
X75954819Y-78480475D02*
X75240533Y-78289999D01*
X75240533Y-78289999D02*
X75954819Y-78099523D01*
X75954819Y-78099523D02*
X74954819Y-77861428D01*
X75954819Y-76956666D02*
X75954819Y-77528094D01*
X75954819Y-77242380D02*
X74954819Y-77242380D01*
X74954819Y-77242380D02*
X75097676Y-77337618D01*
X75097676Y-77337618D02*
X75192914Y-77432856D01*
X75192914Y-77432856D02*
X75240533Y-77528094D01*
X73359580Y-68558830D02*
X73407200Y-68606449D01*
X73407200Y-68606449D02*
X73454819Y-68749306D01*
X73454819Y-68749306D02*
X73454819Y-68844544D01*
X73454819Y-68844544D02*
X73407200Y-68987401D01*
X73407200Y-68987401D02*
X73311961Y-69082639D01*
X73311961Y-69082639D02*
X73216723Y-69130258D01*
X73216723Y-69130258D02*
X73026247Y-69177877D01*
X73026247Y-69177877D02*
X72883390Y-69177877D01*
X72883390Y-69177877D02*
X72692914Y-69130258D01*
X72692914Y-69130258D02*
X72597676Y-69082639D01*
X72597676Y-69082639D02*
X72502438Y-68987401D01*
X72502438Y-68987401D02*
X72454819Y-68844544D01*
X72454819Y-68844544D02*
X72454819Y-68749306D01*
X72454819Y-68749306D02*
X72502438Y-68606449D01*
X72502438Y-68606449D02*
X72550057Y-68558830D01*
X72788152Y-67701687D02*
X73454819Y-67701687D01*
X72407200Y-67939782D02*
X73121485Y-68177877D01*
X73121485Y-68177877D02*
X73121485Y-67558830D01*
X87954819Y-59166666D02*
X87478628Y-59499999D01*
X87954819Y-59738094D02*
X86954819Y-59738094D01*
X86954819Y-59738094D02*
X86954819Y-59357142D01*
X86954819Y-59357142D02*
X87002438Y-59261904D01*
X87002438Y-59261904D02*
X87050057Y-59214285D01*
X87050057Y-59214285D02*
X87145295Y-59166666D01*
X87145295Y-59166666D02*
X87288152Y-59166666D01*
X87288152Y-59166666D02*
X87383390Y-59214285D01*
X87383390Y-59214285D02*
X87431009Y-59261904D01*
X87431009Y-59261904D02*
X87478628Y-59357142D01*
X87478628Y-59357142D02*
X87478628Y-59738094D01*
X86954819Y-58261904D02*
X86954819Y-58738094D01*
X86954819Y-58738094D02*
X87431009Y-58785713D01*
X87431009Y-58785713D02*
X87383390Y-58738094D01*
X87383390Y-58738094D02*
X87335771Y-58642856D01*
X87335771Y-58642856D02*
X87335771Y-58404761D01*
X87335771Y-58404761D02*
X87383390Y-58309523D01*
X87383390Y-58309523D02*
X87431009Y-58261904D01*
X87431009Y-58261904D02*
X87526247Y-58214285D01*
X87526247Y-58214285D02*
X87764342Y-58214285D01*
X87764342Y-58214285D02*
X87859580Y-58261904D01*
X87859580Y-58261904D02*
X87907200Y-58309523D01*
X87907200Y-58309523D02*
X87954819Y-58404761D01*
X87954819Y-58404761D02*
X87954819Y-58642856D01*
X87954819Y-58642856D02*
X87907200Y-58738094D01*
X87907200Y-58738094D02*
X87859580Y-58785713D01*
X77359580Y-70142857D02*
X77407200Y-70190476D01*
X77407200Y-70190476D02*
X77454819Y-70333333D01*
X77454819Y-70333333D02*
X77454819Y-70428571D01*
X77454819Y-70428571D02*
X77407200Y-70571428D01*
X77407200Y-70571428D02*
X77311961Y-70666666D01*
X77311961Y-70666666D02*
X77216723Y-70714285D01*
X77216723Y-70714285D02*
X77026247Y-70761904D01*
X77026247Y-70761904D02*
X76883390Y-70761904D01*
X76883390Y-70761904D02*
X76692914Y-70714285D01*
X76692914Y-70714285D02*
X76597676Y-70666666D01*
X76597676Y-70666666D02*
X76502438Y-70571428D01*
X76502438Y-70571428D02*
X76454819Y-70428571D01*
X76454819Y-70428571D02*
X76454819Y-70333333D01*
X76454819Y-70333333D02*
X76502438Y-70190476D01*
X76502438Y-70190476D02*
X76550057Y-70142857D01*
X77454819Y-69190476D02*
X77454819Y-69761904D01*
X77454819Y-69476190D02*
X76454819Y-69476190D01*
X76454819Y-69476190D02*
X76597676Y-69571428D01*
X76597676Y-69571428D02*
X76692914Y-69666666D01*
X76692914Y-69666666D02*
X76740533Y-69761904D01*
X77454819Y-68238095D02*
X77454819Y-68809523D01*
X77454819Y-68523809D02*
X76454819Y-68523809D01*
X76454819Y-68523809D02*
X76597676Y-68619047D01*
X76597676Y-68619047D02*
X76692914Y-68714285D01*
X76692914Y-68714285D02*
X76740533Y-68809523D01*
D16*
%TO.C,D1*%
X83765000Y-42302500D02*
X83765000Y-44587500D01*
X85235000Y-42302500D02*
X83765000Y-42302500D01*
X85235000Y-44587500D02*
X85235000Y-42302500D01*
%TO.C,C2*%
X75912164Y-55640000D02*
X76127836Y-55640000D01*
X75912164Y-56360000D02*
X76127836Y-56360000D01*
%TO.C,J3*%
X67120000Y-60120000D02*
X68500000Y-60120000D01*
X67120000Y-61500000D02*
X67120000Y-60120000D01*
X67120000Y-62770000D02*
X67120000Y-70500000D01*
X67120000Y-62770000D02*
X69880000Y-62770000D01*
X67120000Y-70500000D02*
X69880000Y-70500000D01*
X69880000Y-62770000D02*
X69880000Y-70500000D01*
%TO.C,J2*%
X67620000Y-46500000D02*
X69000000Y-46500000D01*
X67620000Y-47880000D02*
X67620000Y-46500000D01*
X67620000Y-49150000D02*
X67620000Y-56880000D01*
X67620000Y-49150000D02*
X70380000Y-49150000D01*
X67620000Y-56880000D02*
X70380000Y-56880000D01*
X70380000Y-49150000D02*
X70380000Y-56880000D01*
%TO.C,R3*%
X84120000Y-40143641D02*
X84120000Y-39836359D01*
X84880000Y-40143641D02*
X84880000Y-39836359D01*
%TO.C,C1*%
X71640000Y-65607836D02*
X71640000Y-65392164D01*
X72360000Y-65607836D02*
X72360000Y-65392164D01*
%TO.C,FB1*%
X85049721Y-69490000D02*
X85375279Y-69490000D01*
X85049721Y-70510000D02*
X85375279Y-70510000D01*
%TO.C,C9*%
X80392164Y-72640000D02*
X80607836Y-72640000D01*
X80392164Y-73360000D02*
X80607836Y-73360000D01*
%TO.C,C7*%
X84797164Y-71140000D02*
X85012836Y-71140000D01*
X84797164Y-71860000D02*
X85012836Y-71860000D01*
%TO.C,R2*%
X76643641Y-52620000D02*
X76336359Y-52620000D01*
X76643641Y-53380000D02*
X76336359Y-53380000D01*
%TO.C,R4*%
X86620000Y-63153641D02*
X86620000Y-62846359D01*
X87380000Y-63153641D02*
X87380000Y-62846359D01*
%TO.C,C10*%
X77640000Y-69372164D02*
X77640000Y-69587836D01*
X78360000Y-69372164D02*
X78360000Y-69587836D01*
%TO.C,R1*%
X73643641Y-76120000D02*
X73336359Y-76120000D01*
X73643641Y-76880000D02*
X73336359Y-76880000D01*
%TO.C,C5*%
X72990000Y-65915580D02*
X72990000Y-65634420D01*
X74010000Y-65915580D02*
X74010000Y-65634420D01*
%TO.C,C12*%
X78765000Y-50711252D02*
X78765000Y-50188748D01*
X80235000Y-50711252D02*
X80235000Y-50188748D01*
%TO.C,U2*%
X83500000Y-48590000D02*
X87260000Y-48590000D01*
X83500000Y-55410000D02*
X87260000Y-55410000D01*
X87260000Y-48590000D02*
X87260000Y-49850000D01*
X87260000Y-55410000D02*
X87260000Y-54150000D01*
X82220000Y-48690000D02*
X81980000Y-48360000D01*
X82460000Y-48360000D01*
X82220000Y-48690000D01*
G36*
X82220000Y-48690000D02*
G01*
X81980000Y-48360000D01*
X82460000Y-48360000D01*
X82220000Y-48690000D01*
G37*
%TO.C,C8*%
X87565000Y-70892164D02*
X87565000Y-71107836D01*
X88285000Y-70892164D02*
X88285000Y-71107836D01*
%TO.C,U1*%
X76052500Y-58890000D02*
X76502500Y-58890000D01*
X76052500Y-59340000D02*
X76052500Y-58890000D01*
X76052500Y-65660000D02*
X76052500Y-66110000D01*
X76052500Y-66110000D02*
X76502500Y-66110000D01*
X83272500Y-58890000D02*
X82822500Y-58890000D01*
X83272500Y-59340000D02*
X83272500Y-58890000D01*
X83272500Y-65660000D02*
X83272500Y-66110000D01*
X83272500Y-66110000D02*
X82822500Y-66110000D01*
X76502500Y-66700000D02*
X76032500Y-67040000D01*
X76032500Y-66360000D01*
X76502500Y-66700000D01*
G36*
X76502500Y-66700000D02*
G01*
X76032500Y-67040000D01*
X76032500Y-66360000D01*
X76502500Y-66700000D01*
G37*
%TO.C,C6*%
X81640000Y-71372164D02*
X81640000Y-71587836D01*
X82360000Y-71372164D02*
X82360000Y-71587836D01*
%TO.C,C13*%
X87788748Y-46265000D02*
X88311252Y-46265000D01*
X87788748Y-47735000D02*
X88311252Y-47735000D01*
%TO.C,C3*%
X85640000Y-58872164D02*
X85640000Y-59087836D01*
X86360000Y-58872164D02*
X86360000Y-59087836D01*
%TO.C,Y1*%
X73400000Y-70850000D02*
X73400000Y-74150000D01*
X73400000Y-74150000D02*
X77400000Y-74150000D01*
D14*
%TO.C,J1*%
X73700000Y-39800000D02*
X73700000Y-39950000D01*
X73700000Y-42350000D02*
X73700000Y-43750000D01*
X74000000Y-39350000D02*
X74000000Y-39800000D01*
X74000000Y-39800000D02*
X73700000Y-39800000D01*
X76050000Y-45500000D02*
X75050000Y-45500000D01*
X78925000Y-45925000D02*
X79650000Y-45925000D01*
X79650000Y-45500000D02*
X80650000Y-45500000D01*
X79650000Y-45925000D02*
X79650000Y-45500000D01*
X81700000Y-39800000D02*
X81700000Y-39350000D01*
X82000000Y-39800000D02*
X81700000Y-39800000D01*
X82000000Y-39950000D02*
X82000000Y-39800000D01*
X82000000Y-43750000D02*
X82000000Y-42350000D01*
D16*
%TO.C,SW1*%
X77400000Y-77500000D02*
X77400000Y-78290000D01*
X78000000Y-79300000D02*
X83700000Y-79300000D01*
X79250000Y-76450000D02*
X80950000Y-76450000D01*
X82250000Y-76450000D02*
X82450000Y-76450000D01*
X84300000Y-78290000D02*
X84300000Y-77500000D01*
%TO.C,J4*%
X88620000Y-65230000D02*
X88620000Y-57500000D01*
X91380000Y-57500000D02*
X88620000Y-57500000D01*
X91380000Y-65230000D02*
X88620000Y-65230000D01*
X91380000Y-65230000D02*
X91380000Y-57500000D01*
X91380000Y-66500000D02*
X91380000Y-67880000D01*
X91380000Y-67880000D02*
X90000000Y-67880000D01*
%TO.C,C4*%
X73640000Y-68392164D02*
X73640000Y-68607836D01*
X74360000Y-68392164D02*
X74360000Y-68607836D01*
%TO.C,R5*%
X86620000Y-60846359D02*
X86620000Y-61153641D01*
X87380000Y-60846359D02*
X87380000Y-61153641D01*
%TO.C,C11*%
X75127836Y-69640000D02*
X74912164Y-69640000D01*
X75127836Y-70360000D02*
X74912164Y-70360000D01*
%TD*%
M02*
